<svg xmlns="http://www.w3.org/2000/svg" xmlns:xlink="http://www.w3.org/1999/xlink" version="1.1" width="1080" height="1080" viewBox="0 0 1080 1080" xml:space="preserve">
<desc>Created with Fabric.js 3.5.0</desc>
<defs>
</defs>
<rect x="0" y="0" width="100%" height="100%" fill="rgba(255,255,255,0)"/>
<g transform="matrix(1 0 0 1 565.2766 540)" id="62290">
<g style="" vector-effect="non-scaling-stroke">
		<g transform="matrix(1.7241 0 0 1.7241 -0.007 68.9583)" id="Capa_1">
<path style="stroke: none; stroke-width: 1; stroke-dasharray: none; stroke-linecap: butt; stroke-dashoffset: 0; stroke-linejoin: miter; stroke-miterlimit: 4; is-custom-font: none; font-file-url: none; fill: rgb(227,228,229); fill-rule: nonzero; opacity: 1;" transform=" translate(-232, -272)" d="M 275.746 101.269 L 280 80 h -8.727 h -21.818 H 232 v 32 c 92.784 0 168 75.216 168 168 c 0 92.784 -75.216 168 -168 168 S 64 372.784 64 280 c 0 -78.78 54.229 -144.884 127.391 -163.047 l -3.137 -15.684 C 107.847 120.953 48 193.614 48 280 c 0 101.457 82.543 184 184 184 s 184 -82.543 184 -184 C 416 193.614 356.153 120.953 275.746 101.269 z" stroke-linecap="round"/>
</g>
		<g transform="matrix(1.7241 0 0 1.7241 77.1154 -296.5525)" id="Capa_1">
<polygon style="stroke: none; stroke-width: 1; stroke-dasharray: none; stroke-linecap: butt; stroke-dashoffset: 0; stroke-linejoin: miter; stroke-miterlimit: 4; is-custom-font: none; font-file-url: none; fill: rgb(0,177,255); fill-rule: nonzero; opacity: 1;" points="-27.2725,20 -5.4545,20 27.2725,-20 -12.7275,-20 "/>
</g>
		<g transform="matrix(1.7241 0 0 1.7241 -0.0013 -365.5181)" id="Capa_1">
<polygon style="stroke: none; stroke-width: 1; stroke-dasharray: none; stroke-linecap: butt; stroke-dashoffset: 0; stroke-linejoin: miter; stroke-miterlimit: 4; is-custom-font: none; font-file-url: none; fill: rgb(39,199,255); fill-rule: nonzero; opacity: 1;" points="0,20 32,20 0,-20 -32,20 "/>
</g>
		<g transform="matrix(1.7241 0 0 1.7241 34.4819 -365.5181)" id="Capa_1">
<polygon style="stroke: none; stroke-width: 1; stroke-dasharray: none; stroke-linecap: butt; stroke-dashoffset: 0; stroke-linejoin: miter; stroke-miterlimit: 4; is-custom-font: none; font-file-url: none; fill: rgb(0,177,255); fill-rule: nonzero; opacity: 1;" points="20,-20 -20,-20 12,20 "/>
</g>
		<g transform="matrix(1.7241 0 0 1.7241 -34.4836 -365.5181)" id="Capa_1">
<polygon style="stroke: none; stroke-width: 1; stroke-dasharray: none; stroke-linecap: butt; stroke-dashoffset: 0; stroke-linejoin: miter; stroke-miterlimit: 4; is-custom-font: none; font-file-url: none; fill: rgb(0,177,255); fill-rule: nonzero; opacity: 1;" points="20,-20 -20,-20 -12,20 "/>
</g>
		<g transform="matrix(1.7241 0 0 1.7241 -89.656 -365.5181)" id="Capa_1">
<polygon style="stroke: none; stroke-width: 1; stroke-dasharray: none; stroke-linecap: butt; stroke-dashoffset: 0; stroke-linejoin: miter; stroke-miterlimit: 4; is-custom-font: none; font-file-url: none; fill: rgb(0,150,209); fill-rule: nonzero; opacity: 1;" points="12,-20 -20,20 20,20 "/>
</g>
		<g transform="matrix(1.7241 0 0 1.7241 89.6543 -365.5181)" id="Capa_1">
<polygon style="stroke: none; stroke-width: 1; stroke-dasharray: none; stroke-linecap: butt; stroke-dashoffset: 0; stroke-linejoin: miter; stroke-miterlimit: 4; is-custom-font: none; font-file-url: none; fill: rgb(118,223,255); fill-rule: nonzero; opacity: 1;" points="20,20 -12,-20 -20,20 "/>
</g>
		<g transform="matrix(1.7241 0 0 1.7241 -77.1174 -296.5525)" id="Capa_1">
<polygon style="stroke: none; stroke-width: 1; stroke-dasharray: none; stroke-linecap: butt; stroke-dashoffset: 0; stroke-linejoin: miter; stroke-miterlimit: 4; is-custom-font: none; font-file-url: none; fill: rgb(0,116,168); fill-rule: nonzero; opacity: 1;" points="12.7275,-20 -27.2725,-20 5.4545,20 27.2725,20 "/>
</g>
		<g transform="matrix(1.7241 0 0 1.7241 -0.0013 -296.5525)" id="Capa_1">
<polygon style="stroke: none; stroke-width: 1; stroke-dasharray: none; stroke-linecap: butt; stroke-dashoffset: 0; stroke-linejoin: miter; stroke-miterlimit: 4; is-custom-font: none; font-file-url: none; fill: rgb(0,150,209); fill-rule: nonzero; opacity: 1;" points="0,-20 -32,-20 -17.455,20 0,20 17.455,20 32,-20 "/>
</g>
		<g transform="matrix(1.7241 0 0 1.7241 -0.0063 55.1655)" id="Capa_1">
<path style="stroke: none; stroke-width: 1; stroke-dasharray: none; stroke-linecap: butt; stroke-dashoffset: 0; stroke-linejoin: miter; stroke-miterlimit: 4; is-custom-font: none; font-file-url: none; fill: rgb(208,208,208); fill-rule: nonzero; opacity: 1;" transform=" translate(-232, -264)" d="M 64 280 c 0 92.784 75.216 168 168 168 s 168 -75.216 168 -168 c 0 -92.784 -75.216 -168 -168 -168 V 80 h -17.455 h -21.818 H 184 l 4.254 21.269 l 3.137 15.684 C 118.229 135.116 64 201.22 64 280 z M 384 280 c 0 83.813 -68.188 152 -152 152 S 80 363.813 80 280 s 68.188 -152 152 -152 S 384 196.188 384 280 z" stroke-linecap="round"/>
</g>
</g>
</g>
</svg>