<svg xmlns="http://www.w3.org/2000/svg" xmlns:xlink="http://www.w3.org/1999/xlink" version="1.1" width="1080" height="1080" viewBox="0 0 1080 1080" xml:space="preserve">
<desc>Created with Fabric.js 3.5.0</desc>
<defs>
</defs>
<rect x="0" y="0" width="100%" height="100%" fill="rgba(255,255,255,0)"/>
<g transform="matrix(1.9176 0 0 1.9176 539.9975 539.9975)" id="796912">
<g style="" vector-effect="non-scaling-stroke">
		<g transform="matrix(1 0 0 1 -102.8935 -136.4075)" id="Layer_1">
<path style="stroke: none; stroke-width: 1; stroke-dasharray: none; stroke-linecap: butt; stroke-dashoffset: 0; stroke-linejoin: miter; stroke-miterlimit: 4; is-custom-font: none; font-file-url: none; fill: rgb(247,239,222); fill-rule: nonzero; opacity: 1;" transform=" translate(-153.107, -119.593)" d="M 214.588 146.753 c -3.768 -30.613 -29.849 -54.32 -61.48 -54.32 c -31.633 0 -57.713 23.707 -61.482 54.32 H 214.588 z" stroke-linecap="round"/>
</g>
		<g transform="matrix(1 0 0 1 -125.1685 -136.4085)" id="Layer_1">
<path style="stroke: none; stroke-width: 1; stroke-dasharray: none; stroke-linecap: butt; stroke-dashoffset: 0; stroke-linejoin: miter; stroke-miterlimit: 4; is-custom-font: none; font-file-url: none; fill: rgb(0,0,0); fill-rule: nonzero; opacity: 0.1;" transform=" translate(-130.832, -119.592)" d="M 170.04 94.778 c -5.382 -1.526 -11.06 -2.346 -16.934 -2.346 c -31.633 0 -57.713 23.707 -61.482 54.32 h 33.867 C 128.562 121.824 146.429 101.475 170.04 94.778 z" stroke-linecap="round"/>
</g>
		<g transform="matrix(1 0 0 1 -189.622 -184.9725)" id="Layer_1">
<path style="stroke: none; stroke-width: 1; stroke-dasharray: none; stroke-linecap: butt; stroke-dashoffset: 0; stroke-linejoin: miter; stroke-miterlimit: 4; is-custom-font: none; font-file-url: none; fill: rgb(227,228,229); fill-rule: nonzero; opacity: 1;" transform=" translate(-66.3785, -71.028)" d="M 94.263 66.564 c -16.095 -4.403 -18.933 -7.215 -23.375 -23.163 c -0.56 -2.008 -2.402 -3.398 -4.506 -3.398 c -2.105 0 -3.946 1.39 -4.506 3.398 c -4.442 15.948 -7.284 18.76 -23.373 23.163 c -2.027 0.555 -3.434 2.379 -3.434 4.464 c 0 2.081 1.406 3.907 3.434 4.463 c 16.088 4.402 18.93 7.216 23.373 23.163 c 0.56 2.007 2.4 3.399 4.506 3.399 c 2.103 0 3.946 -1.392 4.506 -3.399 c 4.442 -15.947 7.28 -18.761 23.375 -23.163 c 2.025 -0.556 3.425 -2.381 3.425 -4.463 C 97.689 68.943 96.288 67.119 94.263 66.564 z" stroke-linecap="round"/>
</g>
		<g transform="matrix(1 0 0 1 14.033 -126.5175)" id="Layer_1">
<path style="stroke: none; stroke-width: 1; stroke-dasharray: none; stroke-linecap: butt; stroke-dashoffset: 0; stroke-linejoin: miter; stroke-miterlimit: 4; is-custom-font: none; font-file-url: none; fill: rgb(227,228,229); fill-rule: nonzero; opacity: 1;" transform=" translate(-270.0335, -129.483)" d="M 292.46 125.893 c -12.943 -3.542 -15.227 -5.804 -18.803 -18.631 c -0.448 -1.616 -1.933 -2.731 -3.621 -2.731 c -1.693 0 -3.174 1.115 -3.623 2.731 c -3.573 12.826 -5.859 15.088 -18.8 18.631 c -1.629 0.445 -2.761 1.914 -2.761 3.59 c 0 1.676 1.131 3.143 2.761 3.591 c 12.941 3.539 15.227 5.804 18.8 18.629 c 0.448 1.615 1.931 2.732 3.623 2.732 c 1.689 0 3.172 -1.117 3.621 -2.732 c 3.575 -12.825 5.86 -15.09 18.803 -18.629 c 1.627 -0.448 2.755 -1.915 2.755 -3.591 S 294.087 126.339 292.46 125.893 z" stroke-linecap="round"/>
</g>
		<g transform="matrix(1 0 0 1 -102.9555 -64.0375)" id="Layer_1">
<path style="stroke: none; stroke-width: 1; stroke-dasharray: none; stroke-linecap: butt; stroke-dashoffset: 0; stroke-linejoin: miter; stroke-miterlimit: 4; is-custom-font: none; font-file-url: none; fill: rgb(192,192,192); fill-rule: nonzero; opacity: 1;" transform=" translate(-153.045, -191.963)" d="M 150.472 194.216 c 49.139 0 92.861 19.746 120.863 50.436 l 8.047 -11.907 l -63.168 -93.471 H 89.876 l -63.168 93.471 l 5.896 8.725 C 60.676 212.605 103.055 194.216 150.472 194.216 z" stroke-linecap="round"/>
</g>
		<g transform="matrix(1 0 0 1 -180.835 -65.6285)" id="Layer_1">
<path style="stroke: none; stroke-width: 1; stroke-dasharray: none; stroke-linecap: butt; stroke-dashoffset: 0; stroke-linejoin: miter; stroke-miterlimit: 4; is-custom-font: none; font-file-url: none; fill: rgb(0,0,0); fill-rule: nonzero; opacity: 0.1;" transform=" translate(-75.1655, -190.372)" d="M 123.623 139.274 H 89.876 l -63.168 93.471 l 5.896 8.725 c 11.835 -12.168 26.219 -22.465 42.444 -30.318 L 123.623 139.274 z" stroke-linecap="round"/>
</g>
		<g transform="matrix(1 0 0 1 -102.9565 63.2735)" id="Layer_1">
<path style="stroke: none; stroke-width: 1; stroke-dasharray: none; stroke-linecap: butt; stroke-dashoffset: 0; stroke-linejoin: miter; stroke-miterlimit: 4; is-custom-font: none; font-file-url: none; fill: rgb(227,228,229); fill-rule: nonzero; opacity: 1;" transform=" translate(-153.044, -319.274)" d="M 153.044 166.551 C 68.52 166.551 0 234.927 0 319.273 c 0 84.348 68.52 152.724 153.044 152.724 s 153.044 -68.376 153.044 -152.724 C 306.088 234.927 237.568 166.551 153.044 166.551 z M 153.044 436.705 c -64.889 0 -117.676 -52.68 -117.676 -117.432 c 0 -64.748 52.787 -117.431 117.676 -117.431 c 64.886 0 117.673 52.683 117.673 117.431 C 270.717 384.024 217.93 436.705 153.044 436.705 z" stroke-linecap="round"/>
</g>
		<g transform="matrix(1 0 0 1 102.9555 63.274)" id="Layer_1">
<path style="stroke: none; stroke-width: 1; stroke-dasharray: none; stroke-linecap: butt; stroke-dashoffset: 0; stroke-linejoin: miter; stroke-miterlimit: 4; is-custom-font: none; font-file-url: none; fill: rgb(208,208,208); fill-rule: nonzero; opacity: 1;" transform=" translate(-358.956, -319.2745)" d="M 358.958 166.551 c -84.524 0 -153.046 68.376 -153.046 152.721 c 0 32.046 9.898 61.78 26.798 86.34 c 9.254 -8.512 17.129 -18.485 23.279 -29.544 c -9.365 -16.842 -14.709 -36.206 -14.709 -56.794 c 0 -64.748 52.789 -117.431 117.677 -117.431 c 64.885 0 117.674 52.683 117.674 117.431 c 0 64.752 -52.789 117.432 -117.674 117.432 c -30.708 0 -58.703 -11.804 -79.679 -31.097 c -6.718 9.764 -14.539 18.707 -23.291 26.654 c 27.186 24.686 63.318 39.735 102.971 39.735 c 84.525 0 153.042 -68.376 153.042 -152.724 C 512 234.927 443.482 166.551 358.958 166.551 z" stroke-linecap="round"/>
</g>
		<g transform="matrix(1 0 0 1 -173.9455 63.274)" id="Layer_1">
<path style="stroke: none; stroke-width: 1; stroke-dasharray: none; stroke-linecap: butt; stroke-dashoffset: 0; stroke-linejoin: miter; stroke-miterlimit: 4; is-custom-font: none; font-file-url: none; fill: rgb(0,0,0); fill-rule: nonzero; opacity: 0.1;" transform=" translate(-82.055, -319.2745)" d="M 22.131 319.273 c 0 -80.632 62.621 -146.662 141.979 -152.321 c -3.656 -0.26 -7.344 -0.4 -11.065 -0.4 C 68.52 166.551 0 234.927 0 319.273 c 0 84.348 68.52 152.724 153.044 152.724 c 3.721 0 7.409 -0.14 11.065 -0.4 C 84.752 465.937 22.131 399.906 22.131 319.273 z" stroke-linecap="round"/>
</g>
</g>
</g>
</svg>