<svg xmlns="http://www.w3.org/2000/svg" xmlns:xlink="http://www.w3.org/1999/xlink" version="1.1" width="1080" height="1080" viewBox="0 0 1080 1080" xml:space="preserve">
<desc>Created with Fabric.js 3.5.0</desc>
<defs>
</defs>
<rect x="0" y="0" width="100%" height="100%" fill="rgba(255,255,255,0)"/>
<g transform="matrix(1.9176 0 0 1.9176 540 540)" id="214651">
<g style="" vector-effect="non-scaling-stroke">
		<g transform="matrix(1 0 0 1 -37.6717 -142.617)" id="Layer_1">
<path style="stroke: none; stroke-width: 1; stroke-dasharray: none; stroke-linecap: butt; stroke-dashoffset: 0; stroke-linejoin: miter; stroke-miterlimit: 4; is-custom-font: none; font-file-url: none; fill: rgb(202,139,149); fill-rule: nonzero; opacity: 1;" transform=" translate(-218.3283, -113.383)" d="M 390.108 162.66 c -37.331 31.385 -84.958 48.668 -134.108 48.668 c -113.974 0 -206.7 -91.339 -206.7 -203.61 C 49.3 3.455 45.845 0 41.582 0 s -7.719 3.455 -7.719 7.719 c 0 58.531 23.12 113.552 65.102 154.929 c 41.951 41.347 97.721 64.118 157.035 64.118 c 52.78 0 103.935 -18.57 144.042 -52.289 c 3.263 -2.744 3.684 -7.612 0.941 -10.875 C 398.239 160.339 393.369 159.916 390.108 162.66 z" stroke-linecap="round"/>
</g>
		<g transform="matrix(1 0 0 1 189.089 -180.0705)" id="Layer_1">
<path style="stroke: none; stroke-width: 1; stroke-dasharray: none; stroke-linecap: butt; stroke-dashoffset: 0; stroke-linejoin: miter; stroke-miterlimit: 4; is-custom-font: none; font-file-url: none; fill: rgb(202,139,149); fill-rule: nonzero; opacity: 1;" transform=" translate(-445.089, -75.9295)" d="M 470.418 0 c -4.263 0 -7.719 3.455 -7.719 7.719 c 0 48.078 -17.33 94.741 -48.796 131.394 c -2.776 3.234 -2.406 8.107 0.829 10.884 c 1.457 1.25 3.244 1.862 5.025 1.862 c 2.173 0 4.333 -0.912 5.86 -2.691 c 33.867 -39.45 52.52 -89.684 52.52 -141.449 C 478.137 3.455 474.681 0 470.418 0 z" stroke-linecap="round"/>
</g>
		<g transform="matrix(1 0 0 1 0.0005 -28.141)" id="Layer_1">
<path style="stroke: none; stroke-width: 1; stroke-dasharray: none; stroke-linecap: butt; stroke-dashoffset: 0; stroke-linejoin: miter; stroke-miterlimit: 4; is-custom-font: none; font-file-url: none; fill: rgb(237,177,165); fill-rule: nonzero; opacity: 1;" transform=" translate(-256.0005, -227.859)" d="M 278.031 253.609 c 0 2.919 -2.39 5.308 -5.309 5.308 h -33.443 c -2.919 0 -5.309 -2.389 -5.309 -5.308 v -51.5 c 0 -2.919 2.39 -5.308 5.309 -5.308 h 33.443 c 2.919 0 5.309 2.389 5.309 5.308 V 253.609 z" stroke-linecap="round"/>
</g>
		<g transform="matrix(1 0 0 1 86.894 -56.978)" id="Layer_1">
<ellipse style="stroke: none; stroke-width: 1; stroke-dasharray: none; stroke-linecap: butt; stroke-dashoffset: 0; stroke-linejoin: miter; stroke-miterlimit: 4; is-custom-font: none; font-file-url: none; fill: rgb(237,177,165); fill-rule: nonzero; opacity: 1;" cx="0" cy="0" rx="24.828" ry="24.469"/>
</g>
		<g transform="matrix(1 0 0 1 -86.894 -56.978)" id="Layer_1">
<ellipse style="stroke: none; stroke-width: 1; stroke-dasharray: none; stroke-linecap: butt; stroke-dashoffset: 0; stroke-linejoin: miter; stroke-miterlimit: 4; is-custom-font: none; font-file-url: none; fill: rgb(237,177,165); fill-rule: nonzero; opacity: 1;" cx="0" cy="0" rx="24.827" ry="24.469"/>
</g>
		<g transform="matrix(1 0 0 1 -95.267 -56.9735)" id="Layer_1">
<path style="stroke: none; stroke-width: 1; stroke-dasharray: none; stroke-linecap: butt; stroke-dashoffset: 0; stroke-linejoin: miter; stroke-miterlimit: 4; is-custom-font: none; font-file-url: none; fill: rgb(0,0,0); fill-rule: nonzero; opacity: 0.1;" transform=" translate(-160.733, -199.0265)" d="M 160.452 199.026 c 0 -10.723 7 -19.828 16.739 -23.134 c -2.537 -0.861 -5.256 -1.335 -8.089 -1.335 c -13.71 0 -24.827 10.956 -24.827 24.469 c 0 13.515 11.117 24.47 24.827 24.47 c 2.833 0 5.553 -0.474 8.089 -1.335 C 167.452 218.853 160.452 209.748 160.452 199.026 z" stroke-linecap="round"/>
</g>
		<g transform="matrix(1 0 0 1 117.521 217.041)" id="Layer_1">
<path style="stroke: none; stroke-width: 1; stroke-dasharray: none; stroke-linecap: butt; stroke-dashoffset: 0; stroke-linejoin: miter; stroke-miterlimit: 4; is-custom-font: none; font-file-url: none; fill: rgb(255,215,0); fill-opacity: 0; fill-rule: nonzero; opacity: 1;" transform=" translate(-373.521, -473.041)" d="M 408.213 467.434 c -20.024 -5.527 -23.556 -9.06 -29.087 -29.086 c -0.694 -2.521 -2.987 -4.266 -5.604 -4.266 c -2.617 0 -4.91 1.745 -5.605 4.266 c -5.528 20.025 -9.066 23.558 -29.087 29.086 c -2.521 0.698 -4.267 2.991 -4.267 5.606 c 0 2.615 1.746 4.909 4.267 5.606 c 20.021 5.529 23.559 9.062 29.087 29.087 c 0.695 2.52 2.987 4.267 5.605 4.267 c 2.616 0 4.91 -1.747 5.604 -4.267 c 5.531 -20.024 9.062 -23.558 29.087 -29.087 c 2.521 -0.697 4.266 -2.991 4.266 -5.606 C 412.48 470.425 410.735 468.132 408.213 467.434 z" stroke-linecap="round"/>
</g>
		<g transform="matrix(1 0 0 1 -167.848 93.5275)" id="Layer_1">
<path style="stroke: none; stroke-width: 1; stroke-dasharray: none; stroke-linecap: butt; stroke-dashoffset: 0; stroke-linejoin: miter; stroke-miterlimit: 4; is-custom-font: none; font-file-url: none; fill: rgb(255,215,0); fill-opacity: 0; fill-rule: nonzero; opacity: 1;" transform=" translate(-88.152, -349.5275)" d="M 119.825 344.409 c -18.282 -5.047 -21.507 -8.272 -26.556 -26.556 c -0.633 -2.301 -2.728 -3.895 -5.116 -3.895 c -2.39 0 -4.484 1.593 -5.118 3.895 c -5.048 18.284 -8.277 21.509 -26.555 26.556 c -2.303 0.636 -3.897 2.73 -3.897 5.118 c 0 2.389 1.595 4.482 3.897 5.118 c 18.278 5.048 21.507 8.273 26.555 26.556 c 0.634 2.302 2.728 3.896 5.118 3.896 c 2.387 0 4.482 -1.595 5.116 -3.896 c 5.049 -18.283 8.275 -21.509 26.556 -26.556 c 2.302 -0.636 3.896 -2.729 3.896 -5.118 C 123.721 347.14 122.127 345.046 119.825 344.409 z" stroke-linecap="round"/>
</g>
		<g transform="matrix(1 0 0 1 0 93.32)" id="Layer_1">
<circle style="stroke: none; stroke-width: 1; stroke-dasharray: none; stroke-linecap: butt; stroke-dashoffset: 0; stroke-linejoin: miter; stroke-miterlimit: 4; is-custom-font: none; font-file-url: none; fill: rgb(20,20,168); fill-rule: nonzero; opacity: 1;" cx="0" cy="0" r="106.538"/>
</g>
		<g transform="matrix(1 0 0 1 49.1145 142.6365)" id="Layer_1">
<path style="stroke: none; stroke-width: 1; stroke-dasharray: none; stroke-linecap: butt; stroke-dashoffset: 0; stroke-linejoin: miter; stroke-miterlimit: 4; is-custom-font: none; font-file-url: none; fill: rgb(0,0,204); fill-rule: nonzero; opacity: 1;" transform=" translate(-305.1145, -398.6365)" d="M 296.357 447.938 c 26.059 -10.674 46.948 -31.369 57.87 -57.297 c -0.006 -0.025 -0.012 -0.042 -0.012 -0.042 l -98.213 -41.281 l 40.258 98.637 C 296.294 447.951 296.324 447.945 296.357 447.938 z" stroke-linecap="round"/>
</g>
		<g transform="matrix(1 0 0 1 49.327 44.199)" id="Layer_1">
<path style="stroke: none; stroke-width: 1; stroke-dasharray: none; stroke-linecap: butt; stroke-dashoffset: 0; stroke-linejoin: miter; stroke-miterlimit: 4; is-custom-font: none; font-file-url: none; fill: rgb(0,0,204); fill-rule: nonzero; opacity: 1;" transform=" translate(-305.327, -300.199)" d="M 354.654 309.04 c -10.668 -26.104 -31.391 -47.031 -57.361 -57.96 c -0.003 0.008 -0.007 0.016 -0.012 0.024 l -41.281 98.214 l 98.637 -40.258 C 354.638 309.06 354.652 309.043 354.654 309.04 z" stroke-linecap="round"/>
</g>
		<g transform="matrix(1 0 0 1 -49.326 93.109)" id="Layer_1">
<path style="stroke: none; stroke-width: 1; stroke-dasharray: none; stroke-linecap: butt; stroke-dashoffset: 0; stroke-linejoin: miter; stroke-miterlimit: 4; is-custom-font: none; font-file-url: none; fill: rgb(0,0,204); fill-rule: nonzero; opacity: 1;" transform=" translate(-206.674, -349.109)" d="M 256.001 349.318 l -40.257 -98.637 c -0.003 -0.006 -0.006 -0.013 -0.009 -0.019 c -26.11 10.668 -47.041 31.393 -57.971 57.366 c 0.013 0.005 0.023 0.009 0.023 0.009 L 256 349.319 l -98.636 40.257 c -0.007 0.003 -0.013 0.006 -0.018 0.008 c 10.667 26.11 31.391 47.042 57.363 57.972 c 0.006 -0.013 0.012 -0.023 0.012 -0.023 L 256.001 349.318 l 0.001 0.001 v -0.001 L 256.001 349.318 L 256.001 349.318 z" stroke-linecap="round"/>
</g>
		<g transform="matrix(1 0 0 1 -47.7865 93.3185)" id="Layer_1">
<path style="stroke: none; stroke-width: 1; stroke-dasharray: none; stroke-linecap: butt; stroke-dashoffset: 0; stroke-linejoin: miter; stroke-miterlimit: 4; is-custom-font: none; font-file-url: none; fill: rgb(0,0,0); fill-rule: nonzero; opacity: 0.1;" transform=" translate(-208.2135, -349.3185)" d="M 171.384 349.318 c 0 -55.137 41.887 -100.493 95.578 -105.98 c -3.602 -0.369 -7.259 -0.558 -10.959 -0.558 c -58.841 0 -106.538 47.699 -106.538 106.538 s 47.696 106.539 106.538 106.539 c 3.7 0 7.357 -0.189 10.959 -0.558 C 213.27 449.811 171.384 404.456 171.384 349.318 z" stroke-linecap="round"/>
</g>
		<g transform="matrix(1 0 0 1 -0.0015 95.034)" id="Layer_1">
<path style="stroke: none; stroke-width: 1; stroke-dasharray: none; stroke-linecap: butt; stroke-dashoffset: 0; stroke-linejoin: miter; stroke-miterlimit: 4; is-custom-font: none; font-file-url: none; fill: rgb(0,0,126); fill-rule: nonzero; opacity: 1;" transform=" translate(-255.9985, -351.034)" d="M 283.728 411.258 c -1.26 1.26 -2.97 1.968 -4.75 1.968 l -45.957 -0.001 c -1.783 0.001 -3.49 -0.707 -4.75 -1.966 l -32.497 -32.497 c -1.26 -1.259 -1.967 -2.966 -1.967 -4.749 l -0.001 -45.958 c 0 -1.781 0.707 -3.489 1.968 -4.748 l 32.497 -32.496 c 1.26 -1.26 2.969 -1.969 4.75 -1.969 l 45.957 0.002 c 1.783 -0.001 3.489 0.706 4.748 1.966 l 32.499 32.497 c 1.258 1.26 1.966 2.967 1.966 4.749 v 45.958 c 0 1.782 -0.708 3.49 -1.966 4.749 L 283.728 411.258 z" stroke-linecap="round"/>
</g>
		<g transform="matrix(1 0 0 1 13.915 109.053)" id="Layer_1">
<path style="stroke: none; stroke-width: 1; stroke-dasharray: none; stroke-linecap: butt; stroke-dashoffset: 0; stroke-linejoin: miter; stroke-miterlimit: 4; is-custom-font: none; font-file-url: none; fill: rgb(255,255,255); fill-rule: nonzero; opacity: 1;" transform=" translate(-269.915, -365.053)" d="M 243.497 399.316 c -2.147 0 -4.164 -0.837 -5.68 -2.355 l -0.179 -0.179 c -2.009 -2.008 -2.609 -5.029 -1.522 -7.653 c 1.088 -2.624 3.648 -4.334 6.488 -4.334 h 24.42 c 0.28 0 0.512 -0.096 0.711 -0.294 l 21.839 -21.84 c 0.196 -0.196 0.293 -0.429 0.293 -0.709 v -24.14 c 0 -2.835 1.705 -5.393 4.323 -6.483 c 0.874 -0.364 1.79 -0.54 2.699 -0.54 c 1.818 0 3.605 0.706 4.948 2.038 c 0.009 0.009 0.064 0.063 0.072 0.073 c 1.509 1.514 2.34 3.527 2.34 5.665 v 30.887 c 0 2.116 -0.858 4.186 -2.355 5.68 l -21.834 21.834 c -1.498 1.496 -3.565 2.351 -5.676 2.351 L 243.497 399.316 z" stroke-linecap="round"/>
</g>
</g>
</g>
</svg>