<svg xmlns="http://www.w3.org/2000/svg" xmlns:xlink="http://www.w3.org/1999/xlink" version="1.1" width="1080" height="1080" viewBox="0 0 1080 1080" xml:space="preserve">
<desc>Created with Fabric.js 3.5.0</desc>
<defs>
</defs>
<rect x="0" y="0" width="100%" height="100%" fill="rgba(255,255,255,0)"/>
<g transform="matrix(1.9176 0 0 1.9176 540 540)" id="247226">
<g style="" vector-effect="non-scaling-stroke">
		<g transform="matrix(1 0 0 1 -0.0006 -17.0664)" id="Layer_1">
<path style="stroke: none; stroke-width: 1; stroke-dasharray: none; stroke-linecap: butt; stroke-dashoffset: 0; stroke-linejoin: miter; stroke-miterlimit: 4; is-custom-font: none; font-file-url: none; fill: rgb(227,228,229); fill-rule: nonzero; opacity: 1;" transform=" translate(-255.9994, -238.9336)" d="M 256 315.732 c -112.708 0 -212.849 -55.458 -255.124 -141.299 c -2.075 -4.225 -0.341 -9.342 3.891 -11.425 c 4.208 -2.067 9.333 -0.341 11.425 3.891 C 55.61 246.941 149.743 298.665 256 298.665 S 456.39 246.941 495.806 166.9 c 2.092 -4.225 7.217 -5.95 11.425 -3.891 c 4.234 2.083 5.967 7.2 3.891 11.425 C 468.849 260.274 368.708 315.732 256 315.732 z" stroke-linecap="round"/>
</g>
		<g transform="matrix(1 0 0 1 -119.467 25.599)" id="Layer_1">
<circle style="stroke: none; stroke-width: 1; stroke-dasharray: none; stroke-linecap: butt; stroke-dashoffset: 0; stroke-linejoin: miter; stroke-miterlimit: 4; is-custom-font: none; font-file-url: none; fill: rgb(247,239,222); fill-rule: nonzero; opacity: 1;" cx="0" cy="0" r="25.6"/>
</g>
		<g transform="matrix(1 0 0 1 -120.262 26.394)" id="Layer_1">
<path style="stroke: none; stroke-width: 1; stroke-dasharray: none; stroke-linecap: butt; stroke-dashoffset: 0; stroke-linejoin: miter; stroke-miterlimit: 4; is-custom-font: none; font-file-url: none; fill: rgb(250,235,200); fill-rule: nonzero; opacity: 1;" transform=" translate(-135.738, -282.394)" d="M 147.201 294.399 c -12.96 0 -23.467 -10.507 -23.467 -23.467 c 0 -4.963 1.561 -9.55 4.191 -13.342 c -9.882 3.547 -16.991 12.907 -16.991 24.008 c 0 14.139 11.461 25.6 25.6 25.6 c 11.103 0 20.462 -7.108 24.008 -16.991 C 156.752 292.838 152.165 294.399 147.201 294.399 z" stroke-linecap="round"/>
</g>
		<g transform="matrix(1 0 0 1 119.465 25.599)" id="Layer_1">
<circle style="stroke: none; stroke-width: 1; stroke-dasharray: none; stroke-linecap: butt; stroke-dashoffset: 0; stroke-linejoin: miter; stroke-miterlimit: 4; is-custom-font: none; font-file-url: none; fill: rgb(247,239,222); fill-rule: nonzero; opacity: 1;" cx="0" cy="0" r="25.6"/>
</g>
		<g transform="matrix(1 0 0 1 118.67 26.394)" id="Layer_1">
<path style="stroke: none; stroke-width: 1; stroke-dasharray: none; stroke-linecap: butt; stroke-dashoffset: 0; stroke-linejoin: miter; stroke-miterlimit: 4; is-custom-font: none; font-file-url: none; fill: rgb(250,235,200); fill-rule: nonzero; opacity: 1;" transform=" translate(-374.67, -282.394)" d="M 386.133 294.399 c -12.96 0 -23.467 -10.507 -23.467 -23.467 c 0 -4.963 1.561 -9.55 4.191 -13.342 c -9.882 3.547 -16.991 12.907 -16.991 24.008 c 0 14.139 11.461 25.6 25.6 25.6 c 11.103 0 20.462 -7.108 24.008 -16.991 C 395.683 292.838 391.097 294.399 386.133 294.399 z" stroke-linecap="round"/>
</g>
		<g transform="matrix(1 0 0 1 -68.267 42.665)" id="Layer_1">
<circle style="stroke: none; stroke-width: 1; stroke-dasharray: none; stroke-linecap: butt; stroke-dashoffset: 0; stroke-linejoin: miter; stroke-miterlimit: 4; is-custom-font: none; font-file-url: none; fill: rgb(247,239,222); fill-rule: nonzero; opacity: 1;" cx="0" cy="0" r="34.133"/>
</g>
		<g transform="matrix(1 0 0 1 -68.9945 43.395)" id="Layer_1">
<path style="stroke: none; stroke-width: 1; stroke-dasharray: none; stroke-linecap: butt; stroke-dashoffset: 0; stroke-linejoin: miter; stroke-miterlimit: 4; is-custom-font: none; font-file-url: none; fill: rgb(250,235,200); fill-rule: nonzero; opacity: 1;" transform=" translate(-187.0055, -299.395)" d="M 200.534 315.732 c -16.495 0 -29.866 -13.372 -29.866 -29.866 c 0 -7.667 2.973 -14.586 7.722 -19.875 c -14.276 4.085 -24.788 17.088 -24.788 32.675 c 0 18.851 15.282 34.133 34.133 34.133 c 15.588 0 28.59 -10.512 32.674 -24.787 C 215.12 312.759 208.201 315.732 200.534 315.732 z" stroke-linecap="round"/>
</g>
		<g transform="matrix(1 0 0 1 -55.467 29.865)" id="Layer_1">
<circle style="stroke: none; stroke-width: 1; stroke-dasharray: none; stroke-linecap: butt; stroke-dashoffset: 0; stroke-linejoin: miter; stroke-miterlimit: 4; is-custom-font: none; font-file-url: none; fill: rgb(255,255,255); fill-rule: nonzero; opacity: 1;" cx="0" cy="0" r="8.533"/>
</g>
		<g transform="matrix(1 0 0 1 68.265 42.665)" id="Layer_1">
<circle style="stroke: none; stroke-width: 1; stroke-dasharray: none; stroke-linecap: butt; stroke-dashoffset: 0; stroke-linejoin: miter; stroke-miterlimit: 4; is-custom-font: none; font-file-url: none; fill: rgb(247,239,222); fill-rule: nonzero; opacity: 1;" cx="0" cy="0" r="34.133"/>
</g>
		<g transform="matrix(1 0 0 1 67.5375 43.395)" id="Layer_1">
<path style="stroke: none; stroke-width: 1; stroke-dasharray: none; stroke-linecap: butt; stroke-dashoffset: 0; stroke-linejoin: miter; stroke-miterlimit: 4; is-custom-font: none; font-file-url: none; fill: rgb(250,235,200); fill-rule: nonzero; opacity: 1;" transform=" translate(-323.5375, -299.395)" d="M 337.066 315.732 c -16.495 0 -29.866 -13.372 -29.866 -29.866 c 0 -7.667 2.973 -14.586 7.722 -19.875 c -14.276 4.085 -24.788 17.088 -24.788 32.675 c 0 18.851 15.282 34.133 34.133 34.133 c 15.588 0 28.59 -10.512 32.674 -24.787 C 351.653 312.759 344.733 315.732 337.066 315.732 z" stroke-linecap="round"/>
</g>
		<g transform="matrix(1 0 0 1 81.065 29.865)" id="Layer_1">
<circle style="stroke: none; stroke-width: 1; stroke-dasharray: none; stroke-linecap: butt; stroke-dashoffset: 0; stroke-linejoin: miter; stroke-miterlimit: 4; is-custom-font: none; font-file-url: none; fill: rgb(255,255,255); fill-rule: nonzero; opacity: 1;" cx="0" cy="0" r="8.533"/>
</g>
		<g transform="matrix(1 0 0 1 -0.001 51.199)" id="Layer_1">
<circle style="stroke: none; stroke-width: 1; stroke-dasharray: none; stroke-linecap: butt; stroke-dashoffset: 0; stroke-linejoin: miter; stroke-miterlimit: 4; is-custom-font: none; font-file-url: none; fill: rgb(247,239,222); fill-rule: nonzero; opacity: 1;" cx="0" cy="0" r="42.666"/>
</g>
		<g transform="matrix(1 0 0 1 -1.309 52.506)" id="Layer_1">
<path style="stroke: none; stroke-width: 1; stroke-dasharray: none; stroke-linecap: butt; stroke-dashoffset: 0; stroke-linejoin: miter; stroke-miterlimit: 4; is-custom-font: none; font-file-url: none; fill: rgb(250,235,200); fill-rule: nonzero; opacity: 1;" transform=" translate(-254.691, -308.506)" d="M 268.8 332.798 c -21.207 0 -38.4 -17.191 -38.4 -38.4 c 0 -10.658 4.352 -20.292 11.364 -27.25 c -16.527 5.882 -28.431 21.504 -28.431 40.05 c 0 23.565 19.103 42.666 42.666 42.666 c 18.545 0 34.169 -11.904 40.05 -28.431 C 289.093 328.447 279.459 332.798 268.8 332.798 z" stroke-linecap="round"/>
</g>
		<g transform="matrix(1 0 0 1 12.799 38.399)" id="Layer_1">
<circle style="stroke: none; stroke-width: 1; stroke-dasharray: none; stroke-linecap: butt; stroke-dashoffset: 0; stroke-linejoin: miter; stroke-miterlimit: 4; is-custom-font: none; font-file-url: none; fill: rgb(255,255,255); fill-rule: nonzero; opacity: 1;" cx="0" cy="0" r="12.8"/>
</g>
</g>
</g>
</svg>