<svg xmlns="http://www.w3.org/2000/svg" xmlns:xlink="http://www.w3.org/1999/xlink" version="1.1" width="1080" height="1080" viewBox="0 0 1080 1080" xml:space="preserve">
<desc>Created with Fabric.js 3.5.0</desc>
<defs>
</defs>
<rect x="0" y="0" width="100%" height="100%" fill="rgba(255,255,255,0)"/>
<g transform="matrix(1.9176 0 0 1.9176 539.9965 539.9965)" id="551894">
<g style="" vector-effect="non-scaling-stroke">
		<g transform="matrix(1 0 0 1 109.656 -30.607)" id="Layer_1">
<path style="stroke: none; stroke-width: 1; stroke-dasharray: none; stroke-linecap: butt; stroke-dashoffset: 0; stroke-linejoin: miter; stroke-miterlimit: 4; is-custom-font: none; font-file-url: none; fill: rgb(223,178,169); fill-rule: nonzero; opacity: 1;" transform=" translate(-365.656, -225.393)" d="M 382.177 183.206 c -4.42 0 -8.004 3.583 -8.004 8.003 c 0 13.78 -11.232 24.991 -25.038 24.991 c -4.42 0 -8.003 3.583 -8.003 8.003 v 43.377 h 16.007 v -36.156 c 18.814 -3.729 33.041 -20.345 33.041 -40.215 C 390.18 186.789 386.596 183.206 382.177 183.206 z" stroke-linecap="round"/>
</g>
		<g transform="matrix(1 0 0 1 88.0392 -81.287)" id="Layer_1">
<path style="stroke: none; stroke-width: 1; stroke-dasharray: none; stroke-linecap: butt; stroke-dashoffset: 0; stroke-linejoin: miter; stroke-miterlimit: 4; is-custom-font: none; font-file-url: none; fill: rgb(223,178,169); fill-rule: nonzero; opacity: 1;" transform=" translate(-344.0392, -174.713)" d="M 366.455 173.162 c 3.193 3.055 8.259 2.94 11.315 -0.255 c 3.055 -3.195 2.94 -8.26 -0.255 -11.315 c -7.675 -7.336 -17.754 -11.379 -28.38 -11.379 c -22.633 0 -41.045 18.392 -41.045 40.997 c 0 4.42 3.583 8.003 8.003 8.003 s 8.003 -3.583 8.003 -8.003 c 0 -13.78 11.233 -24.99 25.039 -24.99 C 355.622 166.219 361.773 168.684 366.455 173.162 z" stroke-linecap="round"/>
</g>
		<g transform="matrix(1 0 0 1 92.8365 20.6525)" id="Layer_1">
<path style="stroke: none; stroke-width: 1; stroke-dasharray: none; stroke-linecap: butt; stroke-dashoffset: 0; stroke-linejoin: miter; stroke-miterlimit: 4; is-custom-font: none; font-file-url: none; fill: rgb(183,142,128); fill-rule: nonzero; opacity: 1;" transform=" translate(-348.8365, -276.6525)" d="M 366.203 291.056 v -23.388 c 0 -2.98 -2.44 -5.419 -5.421 -5.419 h -23.892 c -2.981 0 -5.42 2.439 -5.42 5.419 v 23.388 H 366.203 z" stroke-linecap="round"/>
</g>
		<g transform="matrix(1 0 0 1 -92.54 -196.908)" id="Layer_1">
<path style="stroke: none; stroke-width: 1; stroke-dasharray: none; stroke-linecap: butt; stroke-dashoffset: 0; stroke-linejoin: miter; stroke-miterlimit: 4; is-custom-font: none; font-file-url: none; fill: rgb(223,178,169); fill-rule: nonzero; opacity: 1;" transform=" translate(-163.46, -59.092)" d="M 163.46 0 c -22.631 0 -41.045 18.391 -41.045 40.998 c 0 4.42 3.583 8.003 8.003 8.003 c 4.42 0 8.003 -3.583 8.003 -8.003 c 0 -13.78 11.233 -24.991 25.039 -24.991 c 13.806 0 25.038 11.211 25.038 24.991 s -11.232 24.99 -25.038 24.99 c -4.419 0 -8.003 3.583 -8.003 8.003 v 44.193 h 16.007 V 81.212 c 18.814 -3.728 33.041 -20.343 33.041 -40.213 C 204.504 18.391 186.092 0 163.46 0 z" stroke-linecap="round"/>
</g>
		<g transform="matrix(1 0 0 1 -92.838 -129.152)" id="Layer_1">
<path style="stroke: none; stroke-width: 1; stroke-dasharray: none; stroke-linecap: butt; stroke-dashoffset: 0; stroke-linejoin: miter; stroke-miterlimit: 4; is-custom-font: none; font-file-url: none; fill: rgb(183,142,128); fill-rule: nonzero; opacity: 1;" transform=" translate(-163.162, -126.848)" d="M 180.528 141.66 v -24.203 c 0 -2.982 -2.439 -5.421 -5.419 -5.421 h -23.892 c -2.982 0 -5.421 2.439 -5.421 5.421 v 24.203 H 180.528 z" stroke-linecap="round"/>
</g>
		<g transform="matrix(1 0 0 1 -92.839 -81.324)" id="Layer_1">
<ellipse style="stroke: none; stroke-width: 1; stroke-dasharray: none; stroke-linecap: butt; stroke-dashoffset: 0; stroke-linejoin: miter; stroke-miterlimit: 4; is-custom-font: none; font-file-url: none; fill: rgb(183,110,121); fill-rule: nonzero; opacity: 1;" cx="0" cy="0" rx="39.483" ry="39.423"/>
</g>
		<g transform="matrix(1 0 0 1 92.839 69.141)" id="Layer_1">
<ellipse style="stroke: none; stroke-width: 1; stroke-dasharray: none; stroke-linecap: butt; stroke-dashoffset: 0; stroke-linejoin: miter; stroke-miterlimit: 4; is-custom-font: none; font-file-url: none; fill: rgb(183,110,121); fill-rule: nonzero; opacity: 1;" cx="0" cy="0" rx="39.483" ry="39.422"/>
</g>
		<g transform="matrix(1 0 0 1 82.1445 69.1435)" id="Layer_1">
<path style="stroke: none; stroke-width: 1; stroke-dasharray: none; stroke-linecap: butt; stroke-dashoffset: 0; stroke-linejoin: miter; stroke-miterlimit: 4; is-custom-font: none; font-file-url: none; fill: rgb(0,0,0); fill-rule: nonzero; opacity: 0.1;" transform=" translate(-338.1445, -325.1435)" d="M 345.549 325.143 c 0 -15.257 8.686 -28.48 21.386 -35.033 c -5.423 -2.799 -11.573 -4.389 -18.098 -4.389 c -21.806 0 -39.483 17.651 -39.483 39.423 c 0 21.774 17.677 39.422 39.483 39.422 c 6.524 0 12.676 -1.589 18.098 -4.388 C 354.235 353.624 345.549 340.4 345.549 325.143 z" stroke-linecap="round"/>
</g>
		<g transform="matrix(1 0 0 1 -103.5305 -81.319)" id="Layer_1">
<path style="stroke: none; stroke-width: 1; stroke-dasharray: none; stroke-linecap: butt; stroke-dashoffset: 0; stroke-linejoin: miter; stroke-miterlimit: 4; is-custom-font: none; font-file-url: none; fill: rgb(0,0,0); fill-rule: nonzero; opacity: 0.1;" transform=" translate(-152.4695, -174.681)" d="M 159.874 174.682 c 0 -15.258 8.686 -28.482 21.386 -35.034 c -5.422 -2.8 -11.572 -4.39 -18.098 -4.39 c -21.805 0 -39.483 17.651 -39.483 39.424 s 17.678 39.422 39.483 39.422 c 6.525 0 12.676 -1.589 18.098 -4.389 C 168.559 203.163 159.874 189.938 159.874 174.682 z" stroke-linecap="round"/>
</g>
		<g transform="matrix(1 0 0 1 92.839 174.341)" id="Layer_1">
<ellipse style="stroke: none; stroke-width: 1; stroke-dasharray: none; stroke-linecap: butt; stroke-dashoffset: 0; stroke-linejoin: miter; stroke-miterlimit: 4; is-custom-font: none; font-file-url: none; fill: rgb(247,239,222); fill-rule: nonzero; opacity: 1;" cx="0" cy="0" rx="81.784" ry="81.659"/>
</g>
		<g transform="matrix(1 0 0 1 60.3715 174.3405)" id="Layer_1">
<path style="stroke: none; stroke-width: 1; stroke-dasharray: none; stroke-linecap: butt; stroke-dashoffset: 0; stroke-linejoin: miter; stroke-miterlimit: 4; is-custom-font: none; font-file-url: none; fill: rgb(0,0,0); fill-rule: nonzero; opacity: 0.1;" transform=" translate(-316.3715, -430.3405)" d="M 300.759 430.342 c 0 -39.331 27.85 -72.159 64.932 -79.916 c -5.44 -1.138 -11.076 -1.745 -16.854 -1.745 c -45.17 0 -81.785 36.561 -81.785 81.661 c 0 45.098 36.616 81.658 81.785 81.658 c 5.778 0 11.414 -0.606 16.854 -1.745 C 328.609 502.497 300.759 469.67 300.759 430.342 z" stroke-linecap="round"/>
</g>
		<g transform="matrix(1 0 0 1 121.9297 203.856)" id="Layer_1">
<path style="stroke: none; stroke-width: 1; stroke-dasharray: none; stroke-linecap: butt; stroke-dashoffset: 0; stroke-linejoin: miter; stroke-miterlimit: 4; is-custom-font: none; font-file-url: none; fill: rgb(255,255,255); fill-rule: nonzero; opacity: 1;" transform=" translate(-377.9298, -459.856)" d="M 356.524 488.692 c -3.41 -0.018 -6.362 -2.372 -7.14 -5.691 c -0.776 -3.319 0.822 -6.739 3.87 -8.269 c 7.837 -3.934 15.652 -9.688 22.602 -16.638 c 7.072 -7.072 12.892 -15.015 16.83 -22.974 c 1.262 -2.552 3.85 -4.103 6.604 -4.103 c 0.541 0 1.088 0.061 1.633 0.183 c 3.322 0.753 5.695 3.681 5.742 7.089 c 0.004 0.237 0.005 0.479 0.005 0.717 c 0 27.399 -22.386 49.689 -49.904 49.689 L 356.524 488.692 z" stroke-linecap="round"/>
</g>
		<g transform="matrix(1 0 0 1 -92.839 23.876)" id="Layer_1">
<ellipse style="stroke: none; stroke-width: 1; stroke-dasharray: none; stroke-linecap: butt; stroke-dashoffset: 0; stroke-linejoin: miter; stroke-miterlimit: 4; is-custom-font: none; font-file-url: none; fill: rgb(247,239,222); fill-rule: nonzero; opacity: 1;" cx="0" cy="0" rx="81.784" ry="81.659"/>
</g>
		<g transform="matrix(1 0 0 1 -125.3035 23.878)" id="Layer_1">
<path style="stroke: none; stroke-width: 1; stroke-dasharray: none; stroke-linecap: butt; stroke-dashoffset: 0; stroke-linejoin: miter; stroke-miterlimit: 4; is-custom-font: none; font-file-url: none; fill: rgb(0,0,0); fill-rule: nonzero; opacity: 0.1;" transform=" translate(-130.6965, -279.878)" d="M 115.084 279.878 c 0 -39.329 27.851 -72.158 64.932 -79.916 c -5.44 -1.138 -11.075 -1.744 -16.854 -1.744 c -45.169 0 -81.785 36.562 -81.785 81.66 c 0 45.1 36.616 81.66 81.785 81.66 c 5.779 0 11.414 -0.607 16.854 -1.745 C 142.935 352.036 115.084 319.208 115.084 279.878 z" stroke-linecap="round"/>
</g>
		<g transform="matrix(1 0 0 1 -64.4808 55.1025)" id="Layer_1">
<path style="stroke: none; stroke-width: 1; stroke-dasharray: none; stroke-linecap: butt; stroke-dashoffset: 0; stroke-linejoin: miter; stroke-miterlimit: 4; is-custom-font: none; font-file-url: none; fill: rgb(255,255,255); fill-rule: nonzero; opacity: 1;" transform=" translate(-191.5193, -311.1025)" d="M 170.113 339.939 c -3.408 -0.018 -6.362 -2.373 -7.139 -5.692 c -0.776 -3.319 0.822 -6.739 3.869 -8.269 c 7.837 -3.934 15.653 -9.688 22.602 -16.638 c 7.072 -7.073 12.892 -15.015 16.831 -22.973 c 1.262 -2.552 3.85 -4.103 6.604 -4.103 c 0.542 0 1.087 0.06 1.632 0.183 c 3.322 0.752 5.695 3.681 5.742 7.088 c 0.004 0.237 0.005 0.479 0.005 0.717 c 0 27.398 -22.385 49.689 -49.903 49.689 L 170.113 339.939 z" stroke-linecap="round"/>
</g>
</g>
</g>
</svg>