<svg xmlns="http://www.w3.org/2000/svg" xmlns:xlink="http://www.w3.org/1999/xlink" version="1.1" width="1080" height="1080" viewBox="0 0 1080 1080" xml:space="preserve">
<desc>Created with Fabric.js 3.5.0</desc>
<defs>
</defs>
<rect x="0" y="0" width="100%" height="100%" fill="rgba(0,0,0,0)"/>
<g transform="matrix(1.9176 0 0 1.9176 540 540)" id="866631">
<g style="" vector-effect="non-scaling-stroke">
		<g transform="matrix(1 0 0 1 -102.504 52.9495)" id="Layer_1">
<path style="stroke: none; stroke-width: 1; stroke-dasharray: none; stroke-linecap: butt; stroke-dashoffset: 0; stroke-linejoin: miter; stroke-miterlimit: 4; is-custom-font: none; font-file-url: none; fill: rgb(218,165,32); fill-rule: nonzero; opacity: 1;" transform=" translate(-153.4965, -308.95)" d="M 182.34 321.5 v -19.746 c 0 -2.945 -2.41 -5.354 -5.354 -5.354 h -46.979 c -2.945 0 -5.354 2.408 -5.354 5.354 V 321.5 H 182.34 z" stroke-linecap="round"/>
</g>
		<g transform="matrix(1 0 0 1 -91.9543 -19.1685)" id="Layer_1">
<path style="stroke: none; stroke-width: 1; stroke-dasharray: none; stroke-linecap: butt; stroke-dashoffset: 0; stroke-linejoin: miter; stroke-miterlimit: 4; is-custom-font: none; font-file-url: none; fill: rgb(255,191,0); fill-rule: nonzero; opacity: 1;" transform=" translate(-164.0462, -236.832)" d="M 161.402 270.291 v -46.058 c 6.042 -0.967 11.87 -3.034 17.171 -6.119 c 3.772 -2.197 5.05 -7.036 2.854 -10.811 c -2.197 -3.773 -7.035 -5.052 -10.808 -2.856 c -5.172 3.01 -11.093 4.602 -17.122 4.602 c -4.366 0 -7.906 3.539 -7.906 7.906 v 53.335 h 15.811 V 270.291 z" stroke-linecap="round"/>
</g>
		<g transform="matrix(1 0 0 1 102.4475 -180.8615)" id="Layer_1">
<path style="stroke: none; stroke-width: 1; stroke-dasharray: none; stroke-linecap: butt; stroke-dashoffset: 0; stroke-linejoin: miter; stroke-miterlimit: 4; is-custom-font: none; font-file-url: none; fill: rgb(255,191,0); fill-rule: nonzero; opacity: 1;" transform=" translate(-358.448, -75.139)" d="M 358.447 0 c -27.523 0 -49.915 22.394 -49.915 49.919 c 0 4.367 3.54 7.906 7.906 7.906 c 4.366 0 7.907 -3.539 7.907 -7.906 c 0 -18.806 15.298 -34.107 34.103 -34.107 c 18.806 0 34.105 15.3 34.105 34.107 c 0 18.808 -15.299 34.109 -34.105 34.109 c -4.366 0 -7.905 3.54 -7.905 7.906 v 58.344 h 15.811 V 99.213 c 23.781 -3.8 42.01 -24.459 42.01 -49.295 C 408.365 22.394 385.973 0 358.447 0 z" stroke-linecap="round"/>
</g>
		<g transform="matrix(1 0 0 1 -102.5025 -94.299)" id="Layer_1">
<path style="stroke: none; stroke-width: 1; stroke-dasharray: none; stroke-linecap: butt; stroke-dashoffset: 0; stroke-linejoin: miter; stroke-miterlimit: 4; is-custom-font: none; font-file-url: none; fill: rgb(255,191,0); fill-rule: nonzero; opacity: 1;" transform=" translate(-153.498, -161.7015)" d="M 192.541 198.378 c -0.971 0 -1.959 -0.18 -2.917 -0.562 c -4.057 -1.613 -6.038 -6.209 -4.426 -10.267 c 1.595 -4.008 2.402 -8.251 2.403 -12.608 c 0 -18.806 -15.299 -34.106 -34.104 -34.106 s -34.103 15.3 -34.103 34.108 c 0 4.367 -3.539 7.906 -7.906 7.906 s -7.906 -3.539 -7.906 -7.906 c 0 -27.525 22.392 -49.918 49.916 -49.918 s 49.916 22.393 49.916 49.918 c -0.001 6.367 -1.185 12.573 -3.522 18.449 C 198.658 196.49 195.685 198.378 192.541 198.378 z" stroke-linecap="round"/>
</g>
		<g transform="matrix(1 0 0 1 -117.552 52.9495)" id="Layer_1">
<path style="stroke: none; stroke-width: 1; stroke-dasharray: none; stroke-linecap: butt; stroke-dashoffset: 0; stroke-linejoin: miter; stroke-miterlimit: 4; is-custom-font: none; font-file-url: none; fill: rgb(0,0,0); fill-rule: nonzero; opacity: 0.1;" transform=" translate(-138.4485, -308.95)" d="M 146.89 321.5 v -19.746 c 0 -2.945 2.408 -5.354 5.353 -5.354 h -22.235 c -2.945 0 -5.354 2.408 -5.354 5.354 V 321.5 H 146.89 z" stroke-linecap="round"/>
</g>
		<g transform="matrix(1 0 0 1 -102.504 24.9705)" id="Layer_1">
<path style="stroke: none; stroke-width: 1; stroke-dasharray: none; stroke-linecap: butt; stroke-dashoffset: 0; stroke-linejoin: miter; stroke-miterlimit: 4; is-custom-font: none; font-file-url: none; fill: rgb(255,215,0); fill-rule: nonzero; opacity: 1;" transform=" translate(-153.4965, -280.971)" d="M 182.34 291.642 c 0 2.945 -2.41 5.354 -5.354 5.354 h -46.979 c -2.945 0 -5.354 -2.408 -5.354 -5.354 V 270.3 c 0 -2.945 2.41 -5.354 5.354 -5.354 h 46.979 c 2.945 0 5.354 2.41 5.354 5.354 V 291.642 z" stroke-linecap="round"/>
</g>
		<g transform="matrix(1 0 0 1 -117.552 24.9705)" id="Layer_1">
<path style="stroke: none; stroke-width: 1; stroke-dasharray: none; stroke-linecap: butt; stroke-dashoffset: 0; stroke-linejoin: miter; stroke-miterlimit: 4; is-custom-font: none; font-file-url: none; fill: rgb(0,0,0); fill-rule: nonzero; opacity: 0.1;" transform=" translate(-138.4485, -280.971)" d="M 146.89 291.642 V 270.3 c 0 -2.945 2.408 -5.354 5.353 -5.354 h -22.235 c -2.945 0 -5.354 2.41 -5.354 5.354 v 21.342 c 0 2.945 2.41 5.354 5.354 5.354 h 22.235 C 149.297 296.997 146.89 294.588 146.89 291.642 z" stroke-linecap="round"/>
</g>
		<g transform="matrix(1 0 0 1 102.504 -71.692)" id="Layer_1">
<path style="stroke: none; stroke-width: 1; stroke-dasharray: none; stroke-linecap: butt; stroke-dashoffset: 0; stroke-linejoin: miter; stroke-miterlimit: 4; is-custom-font: none; font-file-url: none; fill: rgb(218,165,32); fill-rule: nonzero; opacity: 1;" transform=" translate(-358.5045, -184.3085)" d="M 387.348 197.24 v -20.509 c 0 -2.943 -2.41 -5.354 -5.354 -5.354 h -46.98 c -2.945 0 -5.353 2.41 -5.353 5.354 v 20.509 H 387.348 z" stroke-linecap="round"/>
</g>
		<g transform="matrix(1 0 0 1 87.2365 -71.692)" id="Layer_1">
<path style="stroke: none; stroke-width: 1; stroke-dasharray: none; stroke-linecap: butt; stroke-dashoffset: 0; stroke-linejoin: miter; stroke-miterlimit: 4; is-custom-font: none; font-file-url: none; fill: rgb(0,0,0); fill-rule: nonzero; opacity: 0.1;" transform=" translate(-343.237, -184.3085)" d="M 351.46 197.24 v -20.509 c 0 -2.943 2.41 -5.354 5.353 -5.354 h -21.799 c -2.945 0 -5.353 2.41 -5.353 5.354 v 20.509 H 351.46 z" stroke-linecap="round"/>
</g>
		<g transform="matrix(1 0 0 1 102.504 -100.4825)" id="Layer_1">
<path style="stroke: none; stroke-width: 1; stroke-dasharray: none; stroke-linecap: butt; stroke-dashoffset: 0; stroke-linejoin: miter; stroke-miterlimit: 4; is-custom-font: none; font-file-url: none; fill: rgb(255,215,0); fill-rule: nonzero; opacity: 1;" transform=" translate(-358.5045, -155.518)" d="M 387.348 166.189 c 0 2.945 -2.41 5.354 -5.353 5.354 h -46.98 c -2.945 0 -5.354 -2.41 -5.354 -5.354 v -21.342 c 0 -2.945 2.41 -5.354 5.354 -5.354 h 46.98 c 2.943 0 5.353 2.41 5.353 5.354 L 387.348 166.189 L 387.348 166.189 z" stroke-linecap="round"/>
</g>
		<g transform="matrix(1 0 0 1 87.237 -100.4825)" id="Layer_1">
<path style="stroke: none; stroke-width: 1; stroke-dasharray: none; stroke-linecap: butt; stroke-dashoffset: 0; stroke-linejoin: miter; stroke-miterlimit: 4; is-custom-font: none; font-file-url: none; fill: rgb(0,0,0); fill-rule: nonzero; opacity: 0.1;" transform=" translate(-343.2375, -155.518)" d="M 351.46 166.189 v -21.342 c 0 -2.945 2.41 -5.354 5.354 -5.354 h -21.799 c -2.945 0 -5.354 2.41 -5.354 5.354 v 21.342 c 0 2.945 2.41 5.354 5.354 5.354 h 21.799 C 353.869 171.543 351.46 169.134 351.46 166.189 z" stroke-linecap="round"/>
</g>
		<g transform="matrix(1 0 0 1 -102.5054 159.238)" id="Layer_1">
<path style="stroke: none; stroke-width: 1; stroke-dasharray: none; stroke-linecap: butt; stroke-dashoffset: 0; stroke-linejoin: miter; stroke-miterlimit: 4; is-custom-font: none; font-file-url: none; fill: rgb(160,163,162); fill-opacity: 0.34; fill-rule: nonzero; opacity: 1;" transform=" translate(-153.4951, -415.2385)" d="M 103.471 512 c -3.601 0 -6.955 -1.937 -8.754 -5.054 l -50.026 -86.652 c -1.799 -3.118 -1.799 -6.991 -0.001 -10.109 l 50.027 -86.654 c 1.799 -3.117 5.154 -5.054 8.754 -5.054 h 100.05 c 3.601 0 6.956 1.936 8.755 5.054 l 50.024 86.652 c 1.798 3.119 1.798 6.991 0.001 10.107 l -50.027 86.655 c -1.8 3.117 -5.154 5.054 -8.755 5.054 H 103.471 V 512 z" stroke-linecap="round"/>
</g>
		<g transform="matrix(1 0 0 1 -40.6605 110.857)" id="Layer_1">
<path style="stroke: none; stroke-width: 1; stroke-dasharray: none; stroke-linecap: butt; stroke-dashoffset: 0; stroke-linejoin: miter; stroke-miterlimit: 4; is-custom-font: none; font-file-url: none; fill: rgb(46,47,40); fill-opacity: 0.36; fill-rule: nonzero; opacity: 1;" transform=" translate(-215.34, -366.8575)" d="M 262.302 410.183 l -50.025 -86.652 c -1.8 -3.118 -5.154 -5.054 -8.755 -5.054 h -0.399 l -36.093 62.52 h 6.234 l 19.768 34.241 h 70.595 h 0.023 C 263.65 413.491 263.2 411.743 262.302 410.183 z" stroke-linecap="round"/>
</g>
		<g transform="matrix(1 0 0 1 -164.438 207.617)" id="Layer_1">
<path style="stroke: none; stroke-width: 1; stroke-dasharray: none; stroke-linecap: butt; stroke-dashoffset: 0; stroke-linejoin: miter; stroke-miterlimit: 4; is-custom-font: none; font-file-url: none; fill: rgb(46,47,40); fill-opacity: 0.36; fill-rule: nonzero; opacity: 1;" transform=" translate(-91.5625, -463.6175)" d="M 113.962 415.237 h -70.62 c 0 1.748 0.449 3.496 1.35 5.055 l 50.026 86.652 c 1.799 3.117 5.154 5.054 8.754 5.054 h 0.218 l 36.093 -62.521 h -6.053 L 113.962 415.237 z" stroke-linecap="round"/>
</g>
		<g transform="matrix(1 0 0 1 -164.4385 110.857)" id="Layer_1">
<path style="stroke: none; stroke-width: 1; stroke-dasharray: none; stroke-linecap: butt; stroke-dashoffset: 0; stroke-linejoin: miter; stroke-miterlimit: 4; is-custom-font: none; font-file-url: none; fill: rgb(210,214,217); fill-opacity: 0.32; fill-rule: nonzero; opacity: 1;" transform=" translate(-91.562, -366.8575)" d="M 103.471 318.477 c -3.601 0 -6.956 1.936 -8.754 5.054 L 44.69 410.185 c -0.899 1.559 -1.348 3.306 -1.348 5.053 h 70.62 l 19.767 -34.241 h 6.053 l -36.093 -62.52 H 103.471 z" stroke-linecap="round"/>
</g>
		<g transform="matrix(1 0 0 1 -40.66 207.618)" id="Layer_1">
<path style="stroke: none; stroke-width: 1; stroke-dasharray: none; stroke-linecap: butt; stroke-dashoffset: 0; stroke-linejoin: miter; stroke-miterlimit: 4; is-custom-font: none; font-file-url: none; fill: rgb(210,214,217); fill-opacity: 0.32; fill-rule: nonzero; opacity: 1;" transform=" translate(-215.3405, -463.6185)" d="M 263.627 415.237 h -70.595 l -19.768 34.241 h -6.234 L 203.123 512 h 0.399 c 3.601 0 6.955 -1.937 8.755 -5.054 l 50.027 -86.655 c 0.898 -1.558 1.348 -3.305 1.347 -5.052 h -0.024 V 415.237 z" stroke-linecap="round"/>
</g>
		<g transform="matrix(1 0 0 1 -102.5031 159.2375)" id="Layer_1">
<path style="stroke: none; stroke-width: 1; stroke-dasharray: none; stroke-linecap: butt; stroke-dashoffset: 0; stroke-linejoin: miter; stroke-miterlimit: 4; is-custom-font: none; font-file-url: none; fill: rgb(255,255,255); fill-opacity: 0.34; fill-rule: nonzero; opacity: 1;" transform=" translate(-153.4975, -415.238)" d="M 134.813 452.826 c -1.867 0 -3.591 -0.996 -4.524 -2.612 l -18.683 -32.364 c -0.933 -1.616 -0.933 -3.608 0 -5.224 l 18.683 -32.364 c 0.933 -1.616 2.657 -2.613 4.524 -2.613 h 37.368 c 1.867 0 3.591 0.996 4.524 2.612 l 18.684 32.365 c 0.933 1.616 0.933 3.608 0 5.224 l -18.684 32.365 c -0.933 1.616 -2.658 2.612 -4.524 2.612 h -37.368 V 452.826 z" stroke-linecap="round"/>
</g>
		<g transform="matrix(1 0 0 1 -170.4777 159.238)" id="Layer_1">
<path style="stroke: none; stroke-width: 1; stroke-dasharray: none; stroke-linecap: butt; stroke-dashoffset: 0; stroke-linejoin: miter; stroke-miterlimit: 4; is-custom-font: none; font-file-url: none; fill: rgb(0,0,0); fill-rule: nonzero; opacity: 0.1;" transform=" translate(-85.5228, -415.2385)" d="M 127.704 318.477 h -24.233 c -3.601 0 -6.956 1.936 -8.754 5.054 L 44.69 410.185 c -1.798 3.118 -1.798 6.991 0.001 10.109 l 50.026 86.652 c 1.799 3.117 5.154 5.054 8.754 5.054 h 24.233 l -54.23 -93.936 c -1.009 -1.749 -1.009 -3.904 0 -5.654 L 127.704 318.477 z" stroke-linecap="round"/>
</g>
		<g transform="matrix(1 0 0 1 102.5037 34.853)" id="Layer_1">
<path style="stroke: none; stroke-width: 1; stroke-dasharray: none; stroke-linecap: butt; stroke-dashoffset: 0; stroke-linejoin: miter; stroke-miterlimit: 4; is-custom-font: none; font-file-url: none; fill: rgb(160,163,162); fill-opacity: 0.34; fill-rule: nonzero; opacity: 1;" transform=" translate(-358.5042, -290.8535)" d="M 308.48 387.615 c -3.601 0 -6.955 -1.937 -8.755 -5.054 l -50.026 -86.652 c -1.799 -3.118 -1.799 -6.991 -0.001 -10.109 l 50.027 -86.654 c 1.799 -3.117 5.155 -5.054 8.755 -5.054 h 100.05 c 3.601 0 6.956 1.937 8.755 5.054 l 50.025 86.652 c 1.798 3.119 1.798 6.991 0.002 10.107 l -50.027 86.655 c -1.799 3.118 -5.154 5.054 -8.754 5.054 H 308.48 V 387.615 z" stroke-linecap="round"/>
</g>
		<g transform="matrix(1 0 0 1 164.3465 -13.5285)" id="Layer_1">
<path style="stroke: none; stroke-width: 1; stroke-dasharray: none; stroke-linecap: butt; stroke-dashoffset: 0; stroke-linejoin: miter; stroke-miterlimit: 4; is-custom-font: none; font-file-url: none; fill: rgb(46,47,40); fill-opacity: 0.36; fill-rule: nonzero; opacity: 1;" transform=" translate(-420.347, -242.472)" d="M 467.31 285.797 l -50.025 -86.652 c -1.799 -3.117 -5.154 -5.054 -8.755 -5.054 h -0.399 l -36.094 62.521 h 6.234 l 19.767 34.241 h 70.596 h 0.023 C 468.659 289.105 468.209 287.357 467.31 285.797 z" stroke-linecap="round"/>
</g>
		<g transform="matrix(1 0 0 1 40.5715 83.233)" id="Layer_1">
<path style="stroke: none; stroke-width: 1; stroke-dasharray: none; stroke-linecap: butt; stroke-dashoffset: 0; stroke-linejoin: miter; stroke-miterlimit: 4; is-custom-font: none; font-file-url: none; fill: rgb(46,47,40); fill-opacity: 0.36; fill-rule: nonzero; opacity: 1;" transform=" translate(-296.572, -339.2335)" d="M 318.971 290.853 h -70.619 c 0 1.747 0.449 3.496 1.349 5.055 l 50.026 86.652 c 1.8 3.118 5.154 5.054 8.755 5.054 h 0.217 l 36.093 -62.521 h -6.052 L 318.971 290.853 z" stroke-linecap="round"/>
</g>
		<g transform="matrix(1 0 0 1 40.5685 -13.5285)" id="Layer_1">
<path style="stroke: none; stroke-width: 1; stroke-dasharray: none; stroke-linecap: butt; stroke-dashoffset: 0; stroke-linejoin: miter; stroke-miterlimit: 4; is-custom-font: none; font-file-url: none; fill: rgb(210,214,217); fill-opacity: 0.32; fill-rule: nonzero; opacity: 1;" transform=" translate(-296.569, -242.472)" d="M 308.48 194.091 c -3.601 0 -6.956 1.937 -8.755 5.054 l -50.027 86.654 c -0.899 1.559 -1.348 3.306 -1.348 5.054 h 70.619 l 19.767 -34.241 h 6.052 l -36.093 -62.521 H 308.48 z" stroke-linecap="round"/>
</g>
		<g transform="matrix(1 0 0 1 164.3495 83.2335)" id="Layer_1">
<path style="stroke: none; stroke-width: 1; stroke-dasharray: none; stroke-linecap: butt; stroke-dashoffset: 0; stroke-linejoin: miter; stroke-miterlimit: 4; is-custom-font: none; font-file-url: none; fill: rgb(210,214,217); fill-opacity: 0.32; fill-rule: nonzero; opacity: 1;" transform=" translate(-420.35, -339.234)" d="M 468.636 290.853 h -70.596 l -19.767 34.241 h -6.234 l 36.094 62.521 h 0.399 c 3.6 0 6.955 -1.937 8.754 -5.054 l 50.027 -86.655 c 0.899 -1.558 1.348 -3.305 1.348 -5.052 h -0.024 V 290.853 z" stroke-linecap="round"/>
</g>
		<g transform="matrix(1 0 0 1 102.5051 34.8525)" id="Layer_1">
<path style="stroke: none; stroke-width: 1; stroke-dasharray: none; stroke-linecap: butt; stroke-dashoffset: 0; stroke-linejoin: miter; stroke-miterlimit: 4; is-custom-font: none; font-file-url: none; fill: rgb(255,255,255); fill-opacity: 0.34; fill-rule: nonzero; opacity: 1;" transform=" translate(-358.5055, -290.853)" d="M 339.821 328.442 c -1.867 0 -3.591 -0.996 -4.524 -2.613 l -18.683 -32.364 c -0.933 -1.616 -0.933 -3.608 0 -5.224 l 18.683 -32.364 c 0.933 -1.616 2.658 -2.613 4.524 -2.613 h 37.368 c 1.867 0 3.591 0.996 4.524 2.612 l 18.684 32.365 c 0.933 1.616 0.933 3.608 0 5.224 l -18.684 32.365 c -0.933 1.616 -2.658 2.612 -4.524 2.612 H 339.821 z" stroke-linecap="round"/>
</g>
		<g transform="matrix(1 0 0 1 34.5308 34.852)" id="Layer_1">
<path style="stroke: none; stroke-width: 1; stroke-dasharray: none; stroke-linecap: butt; stroke-dashoffset: 0; stroke-linejoin: miter; stroke-miterlimit: 4; is-custom-font: none; font-file-url: none; fill: rgb(0,0,0); fill-rule: nonzero; opacity: 0.1;" transform=" translate(-290.5313, -290.8525)" d="M 332.713 194.091 H 308.48 c -3.601 0 -6.956 1.937 -8.755 5.054 l -50.027 86.654 c -1.798 3.118 -1.798 6.991 0.001 10.109 l 50.026 86.652 c 1.8 3.118 5.155 5.054 8.755 5.054 h 24.233 l -54.23 -93.935 c -1.009 -1.75 -1.009 -3.904 0 -5.654 L 332.713 194.091 z" stroke-linecap="round"/>
</g>
		<g transform="matrix(1 0 0 1 -122.2563 159.237)" id="Layer_1">
<path style="stroke: none; stroke-width: 1; stroke-dasharray: none; stroke-linecap: butt; stroke-dashoffset: 0; stroke-linejoin: miter; stroke-miterlimit: 4; is-custom-font: none; font-file-url: none; fill: rgb(0,0,0); fill-rule: nonzero; opacity: 0.1;" transform=" translate(-133.7441, -415.2375)" d="M 152.058 450.214 l -18.683 -32.364 c -0.933 -1.616 -0.933 -3.608 0 -5.224 l 18.683 -32.364 c 0.933 -1.616 2.658 -2.613 4.524 -2.613 h -21.769 c -1.867 0 -3.591 0.996 -4.524 2.613 l -18.683 32.364 c -0.933 1.616 -0.933 3.608 0 5.224 l 18.683 32.364 c 0.933 1.616 2.657 2.612 4.524 2.612 h 21.769 C 154.715 452.826 152.991 451.831 152.058 450.214 z" stroke-linecap="round"/>
</g>
		<g transform="matrix(1 0 0 1 82.6477 34.852)" id="Layer_1">
<path style="stroke: none; stroke-width: 1; stroke-dasharray: none; stroke-linecap: butt; stroke-dashoffset: 0; stroke-linejoin: miter; stroke-miterlimit: 4; is-custom-font: none; font-file-url: none; fill: rgb(0,0,0); fill-rule: nonzero; opacity: 0.1;" transform=" translate(-338.6481, -290.8525)" d="M 356.858 325.829 l -18.683 -32.364 c -0.933 -1.616 -0.933 -3.608 0 -5.225 l 18.683 -32.364 c 0.933 -1.616 2.657 -2.613 4.524 -2.613 h -21.561 c -1.867 0 -3.591 0.996 -4.524 2.613 l -18.683 32.364 c -0.933 1.616 -0.933 3.608 0 5.225 l 18.683 32.364 c 0.933 1.616 2.658 2.613 4.524 2.613 h 21.561 C 359.515 328.442 357.791 327.446 356.858 325.829 z" stroke-linecap="round"/>
</g>
</g>
</g>
</svg>