<svg xmlns="http://www.w3.org/2000/svg" xmlns:xlink="http://www.w3.org/1999/xlink" version="1.1" width="1080" height="1080" viewBox="0 0 1080 1080" xml:space="preserve">
<desc>Created with Fabric.js 3.5.0</desc>
<defs>
</defs>
<rect x="0" y="0" width="100%" height="100%" fill="rgba(255,255,255,0)"/>
<g transform="matrix(0.4283 0 0 0.4176 1040.289 -42.3363)" id="779912">
<g style="" vector-effect="non-scaling-stroke">
		<g transform="matrix(12.5 0 0 12.5 -218.75 306.25)">
<path style="stroke: none; stroke-width: 1; stroke-dasharray: none; stroke-linecap: butt; stroke-dashoffset: 0; stroke-linejoin: miter; stroke-miterlimit: 4; is-custom-font: none; font-file-url: none; fill: rgb(255,215,0); fill-rule: nonzero; opacity: 1;" transform=" translate(-14.5, -56.5)" d="M 19.2 64 v -5.3 c 0 -2.7 -2.1 -4.9 -4.7 -4.9 S 9.8 56 9.8 58.7 V 64 H 5 v -5.3 c 0 -5.4 4.2 -9.7 9.5 -9.7 c 5.2 0 9.5 4.4 9.5 9.7 V 64 h -4.8" stroke-linecap="round"/>
</g>
		<g transform="matrix(12.5 0 0 12.5 -220 -0.625)">
<path style="stroke: none; stroke-width: 1; stroke-dasharray: none; stroke-linecap: butt; stroke-dashoffset: 0; stroke-linejoin: miter; stroke-miterlimit: 4; is-custom-font: none; font-file-url: none; fill: rgb(255,215,0); fill-rule: nonzero; opacity: 1;" transform=" translate(-14.4, -31.95)" d="M 23.9 27.1 v 9.7 c 0 5.4 -4.2 9.7 -9.5 9.7 c -5.2 0 -9.5 -4.4 -9.5 -9.7 v -9.7 c 0 -5.4 4.2 -9.7 9.5 -9.7 s 9.5 4.4 9.5 9.7 M 9.7 36.9 c 0 2.7 2.1 4.9 4.7 4.9 s 4.7 -2.2 4.7 -4.9 v -9.7 c 0 -2.7 -2.1 -4.9 -4.7 -4.9 s -4.7 2.2 -4.7 4.9 v 9.7" stroke-linecap="round"/>
</g>
		<g transform="matrix(12.5 0 0 12.5 -219.375 -306.25)">
<path style="stroke: none; stroke-width: 1; stroke-dasharray: none; stroke-linecap: butt; stroke-dashoffset: 0; stroke-linejoin: miter; stroke-miterlimit: 4; is-custom-font: none; font-file-url: none; fill: rgb(255,215,0); fill-rule: nonzero; opacity: 1;" transform=" translate(-14.45, -7.5)" d="M 23.9 0 v 5.3 c 0 5.4 -4.2 9.7 -9.5 9.7 C 9.2 15 5 10.6 5 5.3 V 0 h 4.7 v 5.3 c 0 2.7 2.1 4.9 4.7 4.9 s 4.7 -2.2 4.7 -4.9 V 0 h 4.8" stroke-linecap="round"/>
</g>
		<g transform="matrix(12.5 0 0 12.5 -219.375 198.125)">
<path style="stroke: none; stroke-width: 1; stroke-dasharray: none; stroke-linecap: butt; stroke-dashoffset: 0; stroke-linejoin: miter; stroke-miterlimit: 4; is-custom-font: none; font-file-url: none; fill: rgb(255,191,0); fill-rule: nonzero; opacity: 1;" transform=" translate(-14.45, -47.85)" d="M 16.8 53.9 V 41.8 c 0 -3.1 -4.7 -3.1 -4.7 0 v 12.1 c 0 3.1 4.7 3.1 4.7 0" stroke-linecap="round"/>
</g>
		<g transform="matrix(12.5 0 0 12.5 -219.375 -196.875)">
<path style="stroke: none; stroke-width: 1; stroke-dasharray: none; stroke-linecap: butt; stroke-dashoffset: 0; stroke-linejoin: miter; stroke-miterlimit: 4; is-custom-font: none; font-file-url: none; fill: rgb(255,191,0); fill-rule: nonzero; opacity: 1;" transform=" translate(-14.45, -16.25)" d="M 16.8 22.3 V 10.2 c 0 -3.1 -4.7 -3.1 -4.7 0 v 12.1 c 0 3.1 4.7 3.1 4.7 0" stroke-linecap="round"/>
</g>
		<g transform="matrix(12.5 0 0 12.5 218.75 198.75)">
<path style="stroke: none; stroke-width: 1; stroke-dasharray: none; stroke-linecap: butt; stroke-dashoffset: 0; stroke-linejoin: miter; stroke-miterlimit: 4; is-custom-font: none; font-file-url: none; fill: rgb(255,215,0); fill-rule: nonzero; opacity: 1;" transform=" translate(-49.5, -47.9)" d="M 59 43 v 9.8 c 0 5.4 -4.2 9.8 -9.5 9.8 c -5.2 0 -9.5 -4.4 -9.5 -9.8 V 43 c 0 -5.4 4.2 -9.8 9.5 -9.8 S 59 37.6 59 43 m -14.2 9.8 c 0 2.7 2.1 4.9 4.7 4.9 s 4.7 -2.2 4.7 -4.9 V 43 c 0 -2.7 -2.1 -4.9 -4.7 -4.9 s -4.7 2.2 -4.7 4.9 v 9.8" stroke-linecap="round"/>
</g>
		<g transform="matrix(12.5 0 0 12.5 218.75 -198.75)">
<path style="stroke: none; stroke-width: 1; stroke-dasharray: none; stroke-linecap: butt; stroke-dashoffset: 0; stroke-linejoin: miter; stroke-miterlimit: 4; is-custom-font: none; font-file-url: none; fill: rgb(255,215,0); fill-rule: nonzero; opacity: 1;" transform=" translate(-49.5, -16.1)" d="M 59 11.2 V 21 c 0 5.4 -4.2 9.8 -9.5 9.8 c -5.2 0 -9.5 -4.4 -9.5 -9.8 v -9.8 c 0 -5.4 4.2 -9.8 9.5 -9.8 S 59 5.8 59 11.2 M 44.8 21 c 0 2.7 2.1 4.9 4.7 4.9 s 4.7 -2.2 4.7 -4.9 v -9.8 c 0 -2.7 -2.1 -4.9 -4.7 -4.9 s -4.7 2.2 -4.7 4.9 V 21" stroke-linecap="round"/>
</g>
		<g transform="matrix(12.5 0 0 12.5 219.375 0)">
<path style="stroke: none; stroke-width: 1; stroke-dasharray: none; stroke-linecap: butt; stroke-dashoffset: 0; stroke-linejoin: miter; stroke-miterlimit: 4; is-custom-font: none; font-file-url: none; fill: rgb(255,191,0); fill-rule: nonzero; opacity: 1;" transform=" translate(-49.55, -32)" d="M 51.9 38.1 V 25.9 c 0 -3.2 -4.7 -3.2 -4.7 0 v 12.2 c 0 3.2 4.7 3.2 4.7 0" stroke-linecap="round"/>
</g>
		<g transform="matrix(12.5 0 0 12.5 219.375 343.75)">
<path style="stroke: none; stroke-width: 1; stroke-dasharray: none; stroke-linecap: butt; stroke-dashoffset: 0; stroke-linejoin: miter; stroke-miterlimit: 4; is-custom-font: none; font-file-url: none; fill: rgb(255,191,0); fill-rule: nonzero; opacity: 1;" transform=" translate(-49.55, -59.5)" d="M 51.9 64 v -6.6 c 0 -3.2 -4.7 -3.2 -4.7 0 V 64 h 4.7" stroke-linecap="round"/>
</g>
		<g transform="matrix(12.5 0 0 12.5 219.375 -343.75)">
<path style="stroke: none; stroke-width: 1; stroke-dasharray: none; stroke-linecap: butt; stroke-dashoffset: 0; stroke-linejoin: miter; stroke-miterlimit: 4; is-custom-font: none; font-file-url: none; fill: rgb(255,191,0); fill-rule: nonzero; opacity: 1;" transform=" translate(-49.55, -4.5)" d="M 47.2 0 v 6.6 c 0 3.2 4.7 3.2 4.7 0 V 0 h -4.7" stroke-linecap="round"/>
</g>
</g>
</g>
<g transform="matrix(0.4284 0 0 0.4176 1040.3001 284.617)" id="563067">
<g style="" vector-effect="non-scaling-stroke">
		<g transform="matrix(12.5 0 0 12.5 -218.75 306.25)">
<path style="stroke: none; stroke-width: 1; stroke-dasharray: none; stroke-linecap: butt; stroke-dashoffset: 0; stroke-linejoin: miter; stroke-miterlimit: 4; is-custom-font: none; font-file-url: none; fill: rgb(255,215,0); fill-rule: nonzero; opacity: 1;" transform=" translate(-14.5, -56.5)" d="M 19.2 64 v -5.3 c 0 -2.7 -2.1 -4.9 -4.7 -4.9 S 9.8 56 9.8 58.7 V 64 H 5 v -5.3 c 0 -5.4 4.2 -9.7 9.5 -9.7 c 5.2 0 9.5 4.4 9.5 9.7 V 64 h -4.8" stroke-linecap="round"/>
</g>
		<g transform="matrix(12.5 0 0 12.5 -220 -0.625)">
<path style="stroke: none; stroke-width: 1; stroke-dasharray: none; stroke-linecap: butt; stroke-dashoffset: 0; stroke-linejoin: miter; stroke-miterlimit: 4; is-custom-font: none; font-file-url: none; fill: rgb(255,215,0); fill-rule: nonzero; opacity: 1;" transform=" translate(-14.4, -31.95)" d="M 23.9 27.1 v 9.7 c 0 5.4 -4.2 9.7 -9.5 9.7 c -5.2 0 -9.5 -4.4 -9.5 -9.7 v -9.7 c 0 -5.4 4.2 -9.7 9.5 -9.7 s 9.5 4.4 9.5 9.7 M 9.7 36.9 c 0 2.7 2.1 4.9 4.7 4.9 s 4.7 -2.2 4.7 -4.9 v -9.7 c 0 -2.7 -2.1 -4.9 -4.7 -4.9 s -4.7 2.2 -4.7 4.9 v 9.7" stroke-linecap="round"/>
</g>
		<g transform="matrix(12.5 0 0 12.5 -219.375 -306.25)">
<path style="stroke: none; stroke-width: 1; stroke-dasharray: none; stroke-linecap: butt; stroke-dashoffset: 0; stroke-linejoin: miter; stroke-miterlimit: 4; is-custom-font: none; font-file-url: none; fill: rgb(255,215,0); fill-rule: nonzero; opacity: 1;" transform=" translate(-14.45, -7.5)" d="M 23.9 0 v 5.3 c 0 5.4 -4.2 9.7 -9.5 9.7 C 9.2 15 5 10.6 5 5.3 V 0 h 4.7 v 5.3 c 0 2.7 2.1 4.9 4.7 4.9 s 4.7 -2.2 4.7 -4.9 V 0 h 4.8" stroke-linecap="round"/>
</g>
		<g transform="matrix(12.5 0 0 12.5 -219.375 198.125)">
<path style="stroke: none; stroke-width: 1; stroke-dasharray: none; stroke-linecap: butt; stroke-dashoffset: 0; stroke-linejoin: miter; stroke-miterlimit: 4; is-custom-font: none; font-file-url: none; fill: rgb(255,191,0); fill-rule: nonzero; opacity: 1;" transform=" translate(-14.45, -47.85)" d="M 16.8 53.9 V 41.8 c 0 -3.1 -4.7 -3.1 -4.7 0 v 12.1 c 0 3.1 4.7 3.1 4.7 0" stroke-linecap="round"/>
</g>
		<g transform="matrix(12.5 0 0 12.5 -219.375 -196.875)">
<path style="stroke: none; stroke-width: 1; stroke-dasharray: none; stroke-linecap: butt; stroke-dashoffset: 0; stroke-linejoin: miter; stroke-miterlimit: 4; is-custom-font: none; font-file-url: none; fill: rgb(255,191,0); fill-rule: nonzero; opacity: 1;" transform=" translate(-14.45, -16.25)" d="M 16.8 22.3 V 10.2 c 0 -3.1 -4.7 -3.1 -4.7 0 v 12.1 c 0 3.1 4.7 3.1 4.7 0" stroke-linecap="round"/>
</g>
		<g transform="matrix(12.5 0 0 12.5 218.75 198.75)">
<path style="stroke: none; stroke-width: 1; stroke-dasharray: none; stroke-linecap: butt; stroke-dashoffset: 0; stroke-linejoin: miter; stroke-miterlimit: 4; is-custom-font: none; font-file-url: none; fill: rgb(255,215,0); fill-rule: nonzero; opacity: 1;" transform=" translate(-49.5, -47.9)" d="M 59 43 v 9.8 c 0 5.4 -4.2 9.8 -9.5 9.8 c -5.2 0 -9.5 -4.4 -9.5 -9.8 V 43 c 0 -5.4 4.2 -9.8 9.5 -9.8 S 59 37.6 59 43 m -14.2 9.8 c 0 2.7 2.1 4.9 4.7 4.9 s 4.7 -2.2 4.7 -4.9 V 43 c 0 -2.7 -2.1 -4.9 -4.7 -4.9 s -4.7 2.2 -4.7 4.9 v 9.8" stroke-linecap="round"/>
</g>
		<g transform="matrix(12.5 0 0 12.5 218.75 -198.75)">
<path style="stroke: none; stroke-width: 1; stroke-dasharray: none; stroke-linecap: butt; stroke-dashoffset: 0; stroke-linejoin: miter; stroke-miterlimit: 4; is-custom-font: none; font-file-url: none; fill: rgb(255,215,0); fill-rule: nonzero; opacity: 1;" transform=" translate(-49.5, -16.1)" d="M 59 11.2 V 21 c 0 5.4 -4.2 9.8 -9.5 9.8 c -5.2 0 -9.5 -4.4 -9.5 -9.8 v -9.8 c 0 -5.4 4.2 -9.8 9.5 -9.8 S 59 5.8 59 11.2 M 44.8 21 c 0 2.7 2.1 4.9 4.7 4.9 s 4.7 -2.2 4.7 -4.9 v -9.8 c 0 -2.7 -2.1 -4.9 -4.7 -4.9 s -4.7 2.2 -4.7 4.9 V 21" stroke-linecap="round"/>
</g>
		<g transform="matrix(12.5 0 0 12.5 219.375 0)">
<path style="stroke: none; stroke-width: 1; stroke-dasharray: none; stroke-linecap: butt; stroke-dashoffset: 0; stroke-linejoin: miter; stroke-miterlimit: 4; is-custom-font: none; font-file-url: none; fill: rgb(255,191,0); fill-rule: nonzero; opacity: 1;" transform=" translate(-49.55, -32)" d="M 51.9 38.1 V 25.9 c 0 -3.2 -4.7 -3.2 -4.7 0 v 12.2 c 0 3.2 4.7 3.2 4.7 0" stroke-linecap="round"/>
</g>
		<g transform="matrix(12.5 0 0 12.5 219.375 343.75)">
<path style="stroke: none; stroke-width: 1; stroke-dasharray: none; stroke-linecap: butt; stroke-dashoffset: 0; stroke-linejoin: miter; stroke-miterlimit: 4; is-custom-font: none; font-file-url: none; fill: rgb(255,191,0); fill-rule: nonzero; opacity: 1;" transform=" translate(-49.55, -59.5)" d="M 51.9 64 v -6.6 c 0 -3.2 -4.7 -3.2 -4.7 0 V 64 h 4.7" stroke-linecap="round"/>
</g>
		<g transform="matrix(12.5 0 0 12.5 219.375 -343.75)">
<path style="stroke: none; stroke-width: 1; stroke-dasharray: none; stroke-linecap: butt; stroke-dashoffset: 0; stroke-linejoin: miter; stroke-miterlimit: 4; is-custom-font: none; font-file-url: none; fill: rgb(255,191,0); fill-rule: nonzero; opacity: 1;" transform=" translate(-49.55, -4.5)" d="M 47.2 0 v 6.6 c 0 3.2 4.7 3.2 4.7 0 V 0 h -4.7" stroke-linecap="round"/>
</g>
</g>
</g>
<g transform="matrix(0.4284 0 0 0.4176 1040.291 873.5348)" id="995487">
<g style="" vector-effect="non-scaling-stroke">
		<g transform="matrix(12.5 0 0 12.5 -218.75 306.25)">
<path style="stroke: none; stroke-width: 1; stroke-dasharray: none; stroke-linecap: butt; stroke-dashoffset: 0; stroke-linejoin: miter; stroke-miterlimit: 4; is-custom-font: none; font-file-url: none; fill: rgb(255,215,0); fill-rule: nonzero; opacity: 1;" transform=" translate(-14.5, -56.5)" d="M 19.2 64 v -5.3 c 0 -2.7 -2.1 -4.9 -4.7 -4.9 S 9.8 56 9.8 58.7 V 64 H 5 v -5.3 c 0 -5.4 4.2 -9.7 9.5 -9.7 c 5.2 0 9.5 4.4 9.5 9.7 V 64 h -4.8" stroke-linecap="round"/>
</g>
		<g transform="matrix(12.5 0 0 12.5 -220 -0.625)">
<path style="stroke: none; stroke-width: 1; stroke-dasharray: none; stroke-linecap: butt; stroke-dashoffset: 0; stroke-linejoin: miter; stroke-miterlimit: 4; is-custom-font: none; font-file-url: none; fill: rgb(255,215,0); fill-rule: nonzero; opacity: 1;" transform=" translate(-14.4, -31.95)" d="M 23.9 27.1 v 9.7 c 0 5.4 -4.2 9.7 -9.5 9.7 c -5.2 0 -9.5 -4.4 -9.5 -9.7 v -9.7 c 0 -5.4 4.2 -9.7 9.5 -9.7 s 9.5 4.4 9.5 9.7 M 9.7 36.9 c 0 2.7 2.1 4.9 4.7 4.9 s 4.7 -2.2 4.7 -4.9 v -9.7 c 0 -2.7 -2.1 -4.9 -4.7 -4.9 s -4.7 2.2 -4.7 4.9 v 9.7" stroke-linecap="round"/>
</g>
		<g transform="matrix(12.5 0 0 12.5 -219.375 -306.25)">
<path style="stroke: none; stroke-width: 1; stroke-dasharray: none; stroke-linecap: butt; stroke-dashoffset: 0; stroke-linejoin: miter; stroke-miterlimit: 4; is-custom-font: none; font-file-url: none; fill: rgb(255,215,0); fill-rule: nonzero; opacity: 1;" transform=" translate(-14.45, -7.5)" d="M 23.9 0 v 5.3 c 0 5.4 -4.2 9.7 -9.5 9.7 C 9.2 15 5 10.6 5 5.3 V 0 h 4.7 v 5.3 c 0 2.7 2.1 4.9 4.7 4.9 s 4.7 -2.2 4.7 -4.9 V 0 h 4.8" stroke-linecap="round"/>
</g>
		<g transform="matrix(12.5 0 0 12.5 -219.375 198.125)">
<path style="stroke: none; stroke-width: 1; stroke-dasharray: none; stroke-linecap: butt; stroke-dashoffset: 0; stroke-linejoin: miter; stroke-miterlimit: 4; is-custom-font: none; font-file-url: none; fill: rgb(255,191,0); fill-rule: nonzero; opacity: 1;" transform=" translate(-14.45, -47.85)" d="M 16.8 53.9 V 41.8 c 0 -3.1 -4.7 -3.1 -4.7 0 v 12.1 c 0 3.1 4.7 3.1 4.7 0" stroke-linecap="round"/>
</g>
		<g transform="matrix(12.5 0 0 12.5 -219.375 -196.875)">
<path style="stroke: none; stroke-width: 1; stroke-dasharray: none; stroke-linecap: butt; stroke-dashoffset: 0; stroke-linejoin: miter; stroke-miterlimit: 4; is-custom-font: none; font-file-url: none; fill: rgb(255,191,0); fill-rule: nonzero; opacity: 1;" transform=" translate(-14.45, -16.25)" d="M 16.8 22.3 V 10.2 c 0 -3.1 -4.7 -3.1 -4.7 0 v 12.1 c 0 3.1 4.7 3.1 4.7 0" stroke-linecap="round"/>
</g>
		<g transform="matrix(12.5 0 0 12.5 218.75 198.75)">
<path style="stroke: none; stroke-width: 1; stroke-dasharray: none; stroke-linecap: butt; stroke-dashoffset: 0; stroke-linejoin: miter; stroke-miterlimit: 4; is-custom-font: none; font-file-url: none; fill: rgb(255,215,0); fill-rule: nonzero; opacity: 1;" transform=" translate(-49.5, -47.9)" d="M 59 43 v 9.8 c 0 5.4 -4.2 9.8 -9.5 9.8 c -5.2 0 -9.5 -4.4 -9.5 -9.8 V 43 c 0 -5.4 4.2 -9.8 9.5 -9.8 S 59 37.6 59 43 m -14.2 9.8 c 0 2.7 2.1 4.9 4.7 4.9 s 4.7 -2.2 4.7 -4.9 V 43 c 0 -2.7 -2.1 -4.9 -4.7 -4.9 s -4.7 2.2 -4.7 4.9 v 9.8" stroke-linecap="round"/>
</g>
		<g transform="matrix(12.5 0 0 12.5 218.75 -198.75)">
<path style="stroke: none; stroke-width: 1; stroke-dasharray: none; stroke-linecap: butt; stroke-dashoffset: 0; stroke-linejoin: miter; stroke-miterlimit: 4; is-custom-font: none; font-file-url: none; fill: rgb(255,215,0); fill-rule: nonzero; opacity: 1;" transform=" translate(-49.5, -16.1)" d="M 59 11.2 V 21 c 0 5.4 -4.2 9.8 -9.5 9.8 c -5.2 0 -9.5 -4.4 -9.5 -9.8 v -9.8 c 0 -5.4 4.2 -9.8 9.5 -9.8 S 59 5.8 59 11.2 M 44.8 21 c 0 2.7 2.1 4.9 4.7 4.9 s 4.7 -2.2 4.7 -4.9 v -9.8 c 0 -2.7 -2.1 -4.9 -4.7 -4.9 s -4.7 2.2 -4.7 4.9 V 21" stroke-linecap="round"/>
</g>
		<g transform="matrix(12.5 0 0 12.5 219.375 0)">
<path style="stroke: none; stroke-width: 1; stroke-dasharray: none; stroke-linecap: butt; stroke-dashoffset: 0; stroke-linejoin: miter; stroke-miterlimit: 4; is-custom-font: none; font-file-url: none; fill: rgb(255,191,0); fill-rule: nonzero; opacity: 1;" transform=" translate(-49.55, -32)" d="M 51.9 38.1 V 25.9 c 0 -3.2 -4.7 -3.2 -4.7 0 v 12.2 c 0 3.2 4.7 3.2 4.7 0" stroke-linecap="round"/>
</g>
		<g transform="matrix(12.5 0 0 12.5 219.375 343.75)">
<path style="stroke: none; stroke-width: 1; stroke-dasharray: none; stroke-linecap: butt; stroke-dashoffset: 0; stroke-linejoin: miter; stroke-miterlimit: 4; is-custom-font: none; font-file-url: none; fill: rgb(255,191,0); fill-rule: nonzero; opacity: 1;" transform=" translate(-49.55, -59.5)" d="M 51.9 64 v -6.6 c 0 -3.2 -4.7 -3.2 -4.7 0 V 64 h 4.7" stroke-linecap="round"/>
</g>
		<g transform="matrix(12.5 0 0 12.5 219.375 -343.75)">
<path style="stroke: none; stroke-width: 1; stroke-dasharray: none; stroke-linecap: butt; stroke-dashoffset: 0; stroke-linejoin: miter; stroke-miterlimit: 4; is-custom-font: none; font-file-url: none; fill: rgb(255,191,0); fill-rule: nonzero; opacity: 1;" transform=" translate(-49.55, -4.5)" d="M 47.2 0 v 6.6 c 0 3.2 4.7 3.2 4.7 0 V 0 h -4.7" stroke-linecap="round"/>
</g>
</g>
</g>
<g transform="matrix(0.4284 0 0 0.4176 1040.272 1200.4882)" id="988850">
<g style="" vector-effect="non-scaling-stroke">
		<g transform="matrix(12.5 0 0 12.5 -218.75 306.25)">
<path style="stroke: none; stroke-width: 1; stroke-dasharray: none; stroke-linecap: butt; stroke-dashoffset: 0; stroke-linejoin: miter; stroke-miterlimit: 4; is-custom-font: none; font-file-url: none; fill: rgb(255,215,0); fill-rule: nonzero; opacity: 1;" transform=" translate(-14.5, -56.5)" d="M 19.2 64 v -5.3 c 0 -2.7 -2.1 -4.9 -4.7 -4.9 S 9.8 56 9.8 58.7 V 64 H 5 v -5.3 c 0 -5.4 4.2 -9.7 9.5 -9.7 c 5.2 0 9.5 4.4 9.5 9.7 V 64 h -4.8" stroke-linecap="round"/>
</g>
		<g transform="matrix(12.5 0 0 12.5 -220 -0.625)">
<path style="stroke: none; stroke-width: 1; stroke-dasharray: none; stroke-linecap: butt; stroke-dashoffset: 0; stroke-linejoin: miter; stroke-miterlimit: 4; is-custom-font: none; font-file-url: none; fill: rgb(255,215,0); fill-rule: nonzero; opacity: 1;" transform=" translate(-14.4, -31.95)" d="M 23.9 27.1 v 9.7 c 0 5.4 -4.2 9.7 -9.5 9.7 c -5.2 0 -9.5 -4.4 -9.5 -9.7 v -9.7 c 0 -5.4 4.2 -9.7 9.5 -9.7 s 9.5 4.4 9.5 9.7 M 9.7 36.9 c 0 2.7 2.1 4.9 4.7 4.9 s 4.7 -2.2 4.7 -4.9 v -9.7 c 0 -2.7 -2.1 -4.9 -4.7 -4.9 s -4.7 2.2 -4.7 4.9 v 9.7" stroke-linecap="round"/>
</g>
		<g transform="matrix(12.5 0 0 12.5 -219.375 -306.25)">
<path style="stroke: none; stroke-width: 1; stroke-dasharray: none; stroke-linecap: butt; stroke-dashoffset: 0; stroke-linejoin: miter; stroke-miterlimit: 4; is-custom-font: none; font-file-url: none; fill: rgb(255,215,0); fill-rule: nonzero; opacity: 1;" transform=" translate(-14.45, -7.5)" d="M 23.9 0 v 5.3 c 0 5.4 -4.2 9.7 -9.5 9.7 C 9.2 15 5 10.6 5 5.3 V 0 h 4.7 v 5.3 c 0 2.7 2.1 4.9 4.7 4.9 s 4.7 -2.2 4.7 -4.9 V 0 h 4.8" stroke-linecap="round"/>
</g>
		<g transform="matrix(12.5 0 0 12.5 -219.375 198.125)">
<path style="stroke: none; stroke-width: 1; stroke-dasharray: none; stroke-linecap: butt; stroke-dashoffset: 0; stroke-linejoin: miter; stroke-miterlimit: 4; is-custom-font: none; font-file-url: none; fill: rgb(255,191,0); fill-rule: nonzero; opacity: 1;" transform=" translate(-14.45, -47.85)" d="M 16.8 53.9 V 41.8 c 0 -3.1 -4.7 -3.1 -4.7 0 v 12.1 c 0 3.1 4.7 3.1 4.7 0" stroke-linecap="round"/>
</g>
		<g transform="matrix(12.5 0 0 12.5 -219.375 -196.875)">
<path style="stroke: none; stroke-width: 1; stroke-dasharray: none; stroke-linecap: butt; stroke-dashoffset: 0; stroke-linejoin: miter; stroke-miterlimit: 4; is-custom-font: none; font-file-url: none; fill: rgb(255,191,0); fill-rule: nonzero; opacity: 1;" transform=" translate(-14.45, -16.25)" d="M 16.8 22.3 V 10.2 c 0 -3.1 -4.7 -3.1 -4.7 0 v 12.1 c 0 3.1 4.7 3.1 4.7 0" stroke-linecap="round"/>
</g>
		<g transform="matrix(12.5 0 0 12.5 218.75 198.75)">
<path style="stroke: none; stroke-width: 1; stroke-dasharray: none; stroke-linecap: butt; stroke-dashoffset: 0; stroke-linejoin: miter; stroke-miterlimit: 4; is-custom-font: none; font-file-url: none; fill: rgb(255,215,0); fill-rule: nonzero; opacity: 1;" transform=" translate(-49.5, -47.9)" d="M 59 43 v 9.8 c 0 5.4 -4.2 9.8 -9.5 9.8 c -5.2 0 -9.5 -4.4 -9.5 -9.8 V 43 c 0 -5.4 4.2 -9.8 9.5 -9.8 S 59 37.6 59 43 m -14.2 9.8 c 0 2.7 2.1 4.9 4.7 4.9 s 4.7 -2.2 4.7 -4.9 V 43 c 0 -2.7 -2.1 -4.9 -4.7 -4.9 s -4.7 2.2 -4.7 4.9 v 9.8" stroke-linecap="round"/>
</g>
		<g transform="matrix(12.5 0 0 12.5 218.75 -198.75)">
<path style="stroke: none; stroke-width: 1; stroke-dasharray: none; stroke-linecap: butt; stroke-dashoffset: 0; stroke-linejoin: miter; stroke-miterlimit: 4; is-custom-font: none; font-file-url: none; fill: rgb(255,215,0); fill-rule: nonzero; opacity: 1;" transform=" translate(-49.5, -16.1)" d="M 59 11.2 V 21 c 0 5.4 -4.2 9.8 -9.5 9.8 c -5.2 0 -9.5 -4.4 -9.5 -9.8 v -9.8 c 0 -5.4 4.2 -9.8 9.5 -9.8 S 59 5.8 59 11.2 M 44.8 21 c 0 2.7 2.1 4.9 4.7 4.9 s 4.7 -2.2 4.7 -4.9 v -9.8 c 0 -2.7 -2.1 -4.9 -4.7 -4.9 s -4.7 2.2 -4.7 4.9 V 21" stroke-linecap="round"/>
</g>
		<g transform="matrix(12.5 0 0 12.5 219.375 0)">
<path style="stroke: none; stroke-width: 1; stroke-dasharray: none; stroke-linecap: butt; stroke-dashoffset: 0; stroke-linejoin: miter; stroke-miterlimit: 4; is-custom-font: none; font-file-url: none; fill: rgb(255,191,0); fill-rule: nonzero; opacity: 1;" transform=" translate(-49.55, -32)" d="M 51.9 38.1 V 25.9 c 0 -3.2 -4.7 -3.2 -4.7 0 v 12.2 c 0 3.2 4.7 3.2 4.7 0" stroke-linecap="round"/>
</g>
		<g transform="matrix(12.5 0 0 12.5 219.375 343.75)">
<path style="stroke: none; stroke-width: 1; stroke-dasharray: none; stroke-linecap: butt; stroke-dashoffset: 0; stroke-linejoin: miter; stroke-miterlimit: 4; is-custom-font: none; font-file-url: none; fill: rgb(255,191,0); fill-rule: nonzero; opacity: 1;" transform=" translate(-49.55, -59.5)" d="M 51.9 64 v -6.6 c 0 -3.2 -4.7 -3.2 -4.7 0 V 64 h 4.7" stroke-linecap="round"/>
</g>
		<g transform="matrix(12.5 0 0 12.5 219.375 -343.75)">
<path style="stroke: none; stroke-width: 1; stroke-dasharray: none; stroke-linecap: butt; stroke-dashoffset: 0; stroke-linejoin: miter; stroke-miterlimit: 4; is-custom-font: none; font-file-url: none; fill: rgb(255,191,0); fill-rule: nonzero; opacity: 1;" transform=" translate(-49.55, -4.5)" d="M 47.2 0 v 6.6 c 0 3.2 4.7 3.2 4.7 0 V 0 h -4.7" stroke-linecap="round"/>
</g>
</g>
</g>
<g transform="matrix(11.4543 0 0 11.4543 944.6563 577.7111)" id="431537">
<g style="" vector-effect="non-scaling-stroke">
		<g transform="matrix(1 0 0 1 4.916 -8.6155)" id="Gem">
<path style="stroke: none; stroke-width: 1; stroke-dasharray: none; stroke-linecap: butt; stroke-dashoffset: 0; stroke-linejoin: miter; stroke-miterlimit: 4; is-custom-font: none; font-file-url: none; fill: rgb(172,228,229); fill-rule: nonzero; opacity: 1;" transform=" translate(-20.916, -7.3845)" d="M 20.469 11.595 v 1.174 l 5.363 -3.866 c -0.162 -0.323 -0.398 -0.614 -0.7 -0.829 L 17.303 2.42 C 16.915 2.14 16.452 2 16 2 v 6.365 L 20.469 11.595 z" stroke-linecap="round"/>
</g>
		<g transform="matrix(1 0 0 1 7.2635 0.005)" id="Gem">
<path style="stroke: none; stroke-width: 1; stroke-dasharray: none; stroke-linecap: butt; stroke-dashoffset: 0; stroke-linejoin: miter; stroke-miterlimit: 4; is-custom-font: none; font-file-url: none; fill: rgb(111,167,171); fill-rule: nonzero; opacity: 1;" transform=" translate(-23.2635, -16.005)" d="M 25.832 8.903 l -5.363 3.866 v 6.483 c 2.585 1.852 4.685 3.36 5.352 3.855 c 0.151 -0.302 0.237 -0.635 0.237 -0.991 V 9.883 C 26.058 9.538 25.983 9.205 25.832 8.903 z" stroke-linecap="round"/>
</g>
		<g transform="matrix(1 0 0 1 4.9105 8.6265)" id="Gem">
<path style="stroke: none; stroke-width: 1; stroke-dasharray: none; stroke-linecap: butt; stroke-dashoffset: 0; stroke-linejoin: miter; stroke-miterlimit: 4; is-custom-font: none; font-file-url: none; fill: rgb(101,152,153); fill-rule: nonzero; opacity: 1;" transform=" translate(-20.9105, -24.6265)" d="M 20.469 20.405 L 16 23.635 V 30 c 0.452 0 0.915 -0.14 1.303 -0.42 l 7.829 -5.654 c 0.302 -0.215 0.538 -0.495 0.689 -0.818 c -0.668 -0.495 -2.768 -2.003 -5.352 -3.855 V 20.405 z" stroke-linecap="round"/>
</g>
		<g transform="matrix(1 0 0 1 -4.916 8.6155)" id="Gem">
<path style="stroke: none; stroke-width: 1; stroke-dasharray: none; stroke-linecap: butt; stroke-dashoffset: 0; stroke-linejoin: miter; stroke-miterlimit: 4; is-custom-font: none; font-file-url: none; fill: rgb(172,228,229); fill-rule: nonzero; opacity: 1;" transform=" translate(-11.084, -24.6155)" d="M 11.531 20.405 v -1.174 l -5.363 3.866 c 0.162 0.323 0.398 0.614 0.7 0.829 l 7.829 5.654 C 15.085 29.86 15.548 30 16 30 v -6.365 L 11.531 20.405 z" stroke-linecap="round"/>
</g>
		<g transform="matrix(1 0 0 1 -7.2635 0.0055)" id="Gem">
<path style="stroke: none; stroke-width: 1; stroke-dasharray: none; stroke-linecap: butt; stroke-dashoffset: 0; stroke-linejoin: miter; stroke-miterlimit: 4; is-custom-font: none; font-file-url: none; fill: rgb(227,250,252); fill-rule: nonzero; opacity: 1;" transform=" translate(-8.7365, -16.0055)" d="M 11.531 12.802 C 8.935 10.938 6.846 9.42 6.168 8.914 C 6.017 9.215 5.942 9.538 5.942 9.883 v 12.234 c 0 0.345 0.075 0.678 0.226 0.98 l 5.363 -3.866 V 12.802 z" stroke-linecap="round"/>
</g>
		<g transform="matrix(1 0 0 1 0 0)" id="Gem">
<polygon style="stroke: none; stroke-width: 1; stroke-dasharray: none; stroke-linecap: butt; stroke-dashoffset: 0; stroke-linejoin: miter; stroke-miterlimit: 4; is-custom-font: none; font-file-url: none; fill: rgb(185,243,248); fill-rule: nonzero; opacity: 1;" points="0,-7.635 -4.469,-4.405 -4.469,-3.198 -4.469,3.231 -4.469,4.405 0,7.635 4.469,4.405 4.469,3.252 4.469,-3.231 4.469,-4.405 "/>
</g>
		<g transform="matrix(1 0 0 1 -4.916 -8.599)" id="Gem">
<path style="stroke: none; stroke-width: 1; stroke-dasharray: none; stroke-linecap: butt; stroke-dashoffset: 0; stroke-linejoin: miter; stroke-miterlimit: 4; is-custom-font: none; font-file-url: none; fill: rgb(221,241,242); fill-rule: nonzero; opacity: 1;" transform=" translate(-11.084, -7.401)" d="M 11.531 11.595 L 16 8.365 V 2 c -0.452 0 -0.915 0.14 -1.303 0.42 L 6.868 8.074 C 6.566 8.3 6.318 8.58 6.168 8.914 c 0.678 0.506 2.768 2.025 5.363 3.888 V 11.595 z" stroke-linecap="round"/>
</g>
</g>
</g>
</svg>