<svg xmlns="http://www.w3.org/2000/svg" xmlns:xlink="http://www.w3.org/1999/xlink" version="1.1" width="1080" height="1080" viewBox="0 0 1080 1080" xml:space="preserve">
<desc>Created with Fabric.js 3.5.0</desc>
<defs>
</defs>
<rect x="0" y="0" width="100%" height="100%" fill="rgba(255,255,255,0)"/>
<g transform="matrix(1 0 0 1 540.0009 540)" id="50839">
<g style="" vector-effect="non-scaling-stroke">
		<g transform="matrix(1.9176 0 0 1.9176 1.8201 -416.0723)" id="Layer_1">
<path style="stroke: none; stroke-width: 1; stroke-dasharray: none; stroke-linecap: butt; stroke-dashoffset: 0; stroke-linejoin: miter; stroke-miterlimit: 4; is-custom-font: none; font-file-url: none; fill: rgb(183,142,128); fill-rule: nonzero; opacity: 1;" transform=" translate(-256.9504, -39.0262)" d="M 256.95 68.567 c -41.691 0 -80.911 -16.229 -110.431 -45.698 c -3.063 -3.057 -3.068 -8.02 -0.009 -11.083 c 3.057 -3.064 8.02 -3.068 11.083 -0.009 c 54.786 54.69 143.929 54.69 198.716 0 c 3.064 -3.058 8.025 -3.052 11.083 0.009 c 3.057 3.064 3.053 8.026 -0.009 11.083 C 337.86 52.338 298.641 68.567 256.95 68.567 z" stroke-linecap="round"/>
</g>
		<g transform="matrix(1.9176 0 0 1.9176 -209.1687 -462.032)" id="Layer_1">
<ellipse style="stroke: none; stroke-width: 1; stroke-dasharray: none; stroke-linecap: butt; stroke-dashoffset: 0; stroke-linejoin: miter; stroke-miterlimit: 4; is-custom-font: none; font-file-url: none; fill: rgb(223,178,169); fill-rule: nonzero; opacity: 1;" cx="0" cy="0" rx="15.086" ry="15.059"/>
</g>
		<g transform="matrix(1.9176 0 0 1.9176 212.7926 -462.032)" id="Layer_1">
<ellipse style="stroke: none; stroke-width: 1; stroke-dasharray: none; stroke-linecap: butt; stroke-dashoffset: 0; stroke-linejoin: miter; stroke-miterlimit: 4; is-custom-font: none; font-file-url: none; fill: rgb(223,178,169); fill-rule: nonzero; opacity: 1;" cx="0" cy="0" rx="15.085" ry="15.059"/>
</g>
		<g transform="matrix(1.9176 0 0 1.9176 -0.1976 5.1276)" id="Layer_1">
<path style="stroke: none; stroke-width: 1; stroke-dasharray: none; stroke-linecap: butt; stroke-dashoffset: 0; stroke-linejoin: miter; stroke-miterlimit: 4; is-custom-font: none; font-file-url: none; fill: rgb(183,142,128); fill-rule: nonzero; opacity: 1;" transform=" translate(-255.899, -258.6755)" d="M 255.899 470.317 c -117.907 0 -213.832 -94.942 -213.832 -211.641 S 137.992 47.034 255.899 47.034 c 41.775 0 82.247 11.926 117.042 34.491 c 33.915 21.994 60.728 52.862 77.539 89.27 c 1.814 3.929 0.1 8.586 -3.83 10.4 c -3.931 1.815 -8.586 0.1 -10.4 -3.83 c -15.568 -33.716 -40.409 -62.308 -71.838 -82.689 c -32.249 -20.914 -69.773 -31.968 -108.515 -31.968 c -109.265 0 -198.159 87.91 -198.159 195.967 s 88.894 195.967 198.159 195.967 s 198.16 -87.91 198.16 -195.967 c -0.001 -18.859 -2.703 -37.503 -8.032 -55.413 c -1.234 -4.148 1.128 -8.512 5.277 -9.746 c 4.149 -1.236 8.512 1.128 9.746 5.277 c 5.761 19.361 8.682 39.509 8.683 59.882 C 469.732 375.375 373.807 470.317 255.899 470.317 z" stroke-linecap="round"/>
</g>
		<g transform="matrix(1.9176 0 0 1.9176 -0.2031 388.318)" id="Layer_1">
<ellipse style="stroke: none; stroke-width: 1; stroke-dasharray: none; stroke-linecap: butt; stroke-dashoffset: 0; stroke-linejoin: miter; stroke-miterlimit: 4; is-custom-font: none; font-file-url: none; fill: rgb(223,178,169); fill-rule: nonzero; opacity: 1;" cx="0" cy="0" rx="54.07" ry="53.499"/>
</g>
		<g transform="matrix(1.9176 0 0 1.9176 1.8211 -378.7442)" id="Layer_1">
<path style="stroke: none; stroke-width: 1; stroke-dasharray: none; stroke-linecap: butt; stroke-dashoffset: 0; stroke-linejoin: miter; stroke-miterlimit: 4; is-custom-font: none; font-file-url: none; fill: rgb(223,178,169); fill-rule: nonzero; opacity: 1;" transform=" translate(-256.9505, -58.492)" d="M 222.363 75.763 h 69.175 c 5.929 0 10.779 -4.85 10.779 -10.779 V 52 c 0 -5.929 -4.85 -10.779 -10.779 -10.779 h -69.175 c -5.929 0 -10.779 4.85 -10.779 10.779 v 12.985 C 211.583 70.913 216.434 75.763 222.363 75.763 z" stroke-linecap="round"/>
</g>
		<g transform="matrix(1.9176 0 0 1.9176 313.9798 242.4319)" id="Layer_1">
<path style="stroke: none; stroke-width: 1; stroke-dasharray: none; stroke-linecap: butt; stroke-dashoffset: 0; stroke-linejoin: miter; stroke-miterlimit: 4; is-custom-font: none; font-file-url: none; fill: rgb(223,178,169); fill-rule: nonzero; opacity: 1;" transform=" translate(-419.7354, -382.424)" d="M 452.459 396.697 c -10.039 -14.608 -10.291 -17.406 -2.979 -33.266 c 1.994 -4.33 0.829 -9.521 -2.834 -12.626 c -1.947 -1.65 -4.422 -2.559 -6.968 -2.559 c -2.131 0 -4.186 0.626 -5.948 1.81 c -8.734 5.878 -12.887 7.765 -17.089 7.765 c -4.148 0 -9.327 -2.032 -16.336 -5.31 c -1.441 -0.675 -2.975 -1.017 -4.56 -1.017 c -3.129 0 -6.08 1.359 -8.095 3.727 c -3.104 3.644 -3.367 8.961 -0.637 12.932 c 10.039 14.606 10.29 17.403 2.978 33.266 c -1.994 4.33 -0.828 9.522 2.834 12.623 c 1.948 1.651 4.423 2.56 6.969 2.56 c 2.129 0 4.185 -0.626 5.949 -1.811 c 8.733 -5.878 12.886 -7.764 17.087 -7.764 c 4.149 0 9.328 2.032 16.341 5.313 c 1.44 0.673 2.973 1.014 4.556 1.014 c 3.129 0 6.081 -1.359 8.099 -3.729 C 454.925 405.984 455.186 400.667 452.459 396.697 z" stroke-linecap="round"/>
</g>
		<g transform="matrix(1.9176 0 0 1.9176 -316.9022 235.9063)" id="Layer_1">
<path style="stroke: none; stroke-width: 1; stroke-dasharray: none; stroke-linecap: butt; stroke-dashoffset: 0; stroke-linejoin: miter; stroke-miterlimit: 4; is-custom-font: none; font-file-url: none; fill: rgb(223,178,169); fill-rule: nonzero; opacity: 1;" transform=" translate(-90.7421, -379.021)" d="M 114.734 348.09 c -1.585 0 -3.119 0.342 -4.559 1.016 c -7.01 3.279 -12.189 5.31 -16.338 5.311 h -0.001 c -4.2 0 -8.353 -1.887 -17.087 -7.764 c -1.761 -1.185 -3.817 -1.811 -5.948 -1.811 c -2.546 0 -5.021 0.909 -6.968 2.559 c -3.663 3.105 -4.828 8.296 -2.834 12.628 c 7.311 15.859 7.06 18.658 -2.979 33.265 c -2.729 3.971 -2.468 9.287 0.633 12.928 c 2.018 2.37 4.968 3.73 8.098 3.73 l 0 0 c 1.585 0 3.118 -0.342 4.558 -1.016 c 7.012 -3.28 12.191 -5.311 16.339 -5.311 c 4.202 0 8.355 1.886 17.088 7.764 c 1.762 1.185 3.818 1.811 5.948 1.811 c 2.546 0 5.021 -0.909 6.969 -2.56 c 3.663 -3.104 4.828 -8.297 2.833 -12.627 c -7.312 -15.862 -7.061 -18.66 2.981 -33.266 c 2.726 -3.97 2.465 -9.287 -0.638 -12.932 C 120.812 349.448 117.861 348.09 114.734 348.09 z" stroke-linecap="round"/>
</g>
		<g transform="matrix(1.9176 0 0 1.9176 -41.2847 388.3227)" id="Layer_1">
<path style="stroke: none; stroke-width: 1; stroke-dasharray: none; stroke-linecap: butt; stroke-dashoffset: 0; stroke-linejoin: miter; stroke-miterlimit: 4; is-custom-font: none; font-file-url: none; fill: rgb(0,0,0); fill-rule: nonzero; opacity: 0.1;" transform=" translate(-234.4715, -458.5035)" d="M 224.261 458.503 c 0 -25.739 18.376 -47.225 42.854 -52.336 c -3.62 -0.755 -7.371 -1.16 -11.217 -1.16 c -29.862 0 -54.07 23.95 -54.07 53.496 c 0 29.544 24.208 53.497 54.07 53.497 c 3.846 0 7.596 -0.404 11.217 -1.16 C 242.637 505.731 224.261 484.243 224.261 458.503 z" stroke-linecap="round"/>
</g>
		<g transform="matrix(1.9176 0 0 1.9176 -0.2026 388.3183)" id="Layer_1">
<ellipse style="stroke: none; stroke-width: 1; stroke-dasharray: none; stroke-linecap: butt; stroke-dashoffset: 0; stroke-linejoin: miter; stroke-miterlimit: 4; is-custom-font: none; font-file-url: none; fill: rgb(202,139,149); fill-rule: nonzero; opacity: 1;" cx="0" cy="0" rx="22.668" ry="22.428"/>
</g>
		<g transform="matrix(1.9176 0 0 1.9176 192.6344 346.4816)" id="Layer_1">
<ellipse style="stroke: none; stroke-width: 1; stroke-dasharray: none; stroke-linecap: butt; stroke-dashoffset: 0; stroke-linejoin: miter; stroke-miterlimit: 4; is-custom-font: none; font-file-url: none; fill: rgb(247,239,222); fill-rule: nonzero; opacity: 1;" cx="0" cy="0" rx="29.818" ry="29.497"/>
</g>
		<g transform="matrix(1.9176 0 0 1.9176 -195.5634 346.4816)" id="Layer_1">
<ellipse style="stroke: none; stroke-width: 1; stroke-dasharray: none; stroke-linecap: butt; stroke-dashoffset: 0; stroke-linejoin: miter; stroke-miterlimit: 4; is-custom-font: none; font-file-url: none; fill: rgb(247,239,222); fill-rule: nonzero; opacity: 1;" cx="0" cy="0" rx="29.818" ry="29.497"/>
</g>
		<g transform="matrix(1.9176 0 0 1.9176 -384.9124 86.8003)" id="Layer_1">
<ellipse style="stroke: none; stroke-width: 1; stroke-dasharray: none; stroke-linecap: butt; stroke-dashoffset: 0; stroke-linejoin: miter; stroke-miterlimit: 4; is-custom-font: none; font-file-url: none; fill: rgb(247,239,222); fill-rule: nonzero; opacity: 1;" cx="0" cy="0" rx="29.817" ry="29.497"/>
</g>
		<g transform="matrix(1.9176 0 0 1.9176 384.9116 86.8003)" id="Layer_1">
<ellipse style="stroke: none; stroke-width: 1; stroke-dasharray: none; stroke-linecap: butt; stroke-dashoffset: 0; stroke-linejoin: miter; stroke-miterlimit: 4; is-custom-font: none; font-file-url: none; fill: rgb(247,239,222); fill-rule: nonzero; opacity: 1;" cx="0" cy="0" rx="29.817" ry="29.497"/>
</g>
		<g transform="matrix(1.9176 0 0 1.9176 174.4594 346.4903)" id="Layer_1">
<path style="stroke: none; stroke-width: 1; stroke-dasharray: none; stroke-linecap: butt; stroke-dashoffset: 0; stroke-linejoin: miter; stroke-miterlimit: 4; is-custom-font: none; font-file-url: none; fill: rgb(0,0,0); fill-rule: nonzero; opacity: 0.1;" transform=" translate(-346.978, -436.6885)" d="M 348.364 436.687 c 0 -12.499 7.861 -23.176 18.954 -27.472 c -3.367 -1.304 -7.028 -2.028 -10.862 -2.028 c -16.469 0 -29.818 13.21 -29.818 29.501 c 0 16.294 13.35 29.502 29.818 29.502 c 3.834 0 7.495 -0.723 10.862 -2.027 C 356.223 459.865 348.364 449.188 348.364 436.687 z" stroke-linecap="round"/>
</g>
		<g transform="matrix(1.9176 0 0 1.9176 -213.7346 346.4913)" id="Layer_1">
<path style="stroke: none; stroke-width: 1; stroke-dasharray: none; stroke-linecap: butt; stroke-dashoffset: 0; stroke-linejoin: miter; stroke-miterlimit: 4; is-custom-font: none; font-file-url: none; fill: rgb(0,0,0); fill-rule: nonzero; opacity: 0.1;" transform=" translate(-144.542, -436.689)" d="M 145.926 436.688 c 0 -12.499 7.862 -23.175 18.956 -27.472 c -3.367 -1.304 -7.028 -2.028 -10.862 -2.028 c -16.469 0 -29.818 13.209 -29.818 29.501 c 0 16.294 13.35 29.501 29.818 29.501 c 3.834 0 7.495 -0.723 10.862 -2.027 C 153.788 459.865 145.926 449.188 145.926 436.688 z" stroke-linecap="round"/>
</g>
		<g transform="matrix(1.9176 0 0 1.9176 -402.6493 86.7956)" id="Layer_1">
<path style="stroke: none; stroke-width: 1; stroke-dasharray: none; stroke-linecap: butt; stroke-dashoffset: 0; stroke-linejoin: miter; stroke-miterlimit: 4; is-custom-font: none; font-file-url: none; fill: rgb(0,0,0); fill-rule: nonzero; opacity: 0.1;" transform=" translate(-46.0265, -301.2625)" d="M 48.095 301.263 c 0 -12.328 7.644 -22.884 18.499 -27.296 c -3.491 -1.418 -7.311 -2.206 -11.318 -2.206 c -16.468 0 -29.817 13.209 -29.817 29.501 c 0 16.294 13.35 29.502 29.817 29.502 c 4.007 0 7.827 -0.788 11.318 -2.206 C 55.74 324.148 48.095 313.592 48.095 301.263 z" stroke-linecap="round"/>
</g>
		<g transform="matrix(1.9176 0 0 1.9176 367.1709 86.7956)" id="Layer_1">
<path style="stroke: none; stroke-width: 1; stroke-dasharray: none; stroke-linecap: butt; stroke-dashoffset: 0; stroke-linejoin: miter; stroke-miterlimit: 4; is-custom-font: none; font-file-url: none; fill: rgb(0,0,0); fill-rule: nonzero; opacity: 0.1;" transform=" translate(-447.4735, -301.2625)" d="M 449.542 301.263 c 0 -12.328 7.645 -22.884 18.499 -27.296 c -3.49 -1.418 -7.31 -2.206 -11.318 -2.206 c -16.468 0 -29.817 13.209 -29.817 29.501 c 0 16.294 13.35 29.502 29.817 29.502 c 4.007 0 7.827 -0.788 11.318 -2.206 C 457.188 324.148 449.542 313.592 449.542 301.263 z" stroke-linecap="round"/>
</g>
		<g transform="matrix(1.9176 0 0 1.9176 -53.2284 -378.7433)" id="Layer_1">
<path style="stroke: none; stroke-width: 1; stroke-dasharray: none; stroke-linecap: butt; stroke-dashoffset: 0; stroke-linejoin: miter; stroke-miterlimit: 4; is-custom-font: none; font-file-url: none; fill: rgb(0,0,0); fill-rule: nonzero; opacity: 0.1;" transform=" translate(-228.243, -58.4925)" d="M 234.123 64.984 V 52 c 0 -5.929 4.85 -10.779 10.779 -10.779 h -22.539 c -5.929 0 -10.779 4.85 -10.779 10.779 v 12.985 c 0 5.929 4.85 10.779 10.779 10.779 h 22.539 C 238.973 75.763 234.123 70.913 234.123 64.984 z" stroke-linecap="round"/>
</g>
		<g transform="matrix(1.9176 0 0 1.9176 1.8216 -378.7423)" id="Layer_1">
<rect style="stroke: none; stroke-width: 1; stroke-dasharray: none; stroke-linecap: butt; stroke-dashoffset: 0; stroke-linejoin: miter; stroke-miterlimit: 4; is-custom-font: none; font-file-url: none; fill: rgb(202,139,149); fill-rule: nonzero; opacity: 1;" x="-7.8365" y="-17.272" rx="0" ry="0" width="15.673" height="34.544"/>
</g>
</g>
</g>
</svg>